<svg width="1536" height="44" viewBox="0 0 1536 44" xmlns="http://www.w3.org/2000/svg">
    <g fill="#FFF" fill-rule="nonzero" opacity=".1">
        <path d="M199.95 43.935h-5.66a3.226 3.226 0 0 0-1.322-1.355l-6.062-1.952a1.259 1.259 0 0 1-.63-1.178 1.614 1.614 0 0 1 .855-1.468l.871-.097c3.499.839 6.836 1.613 10.27.177.855-.42 1.081-.435 1.258-.37.178.064.436.322.839 1.338a10.35 10.35 0 0 1-.42 4.905zM44.018 39.45l-.468-.436c-.44.038-.839.276-1.08.646a2.793 2.793 0 0 0-.532 2.791l.822 1.484h4.353a25.171 25.171 0 0 0-3.095-4.485zm217.202 4.485a12.779 12.779 0 0 0-3.612-5.195c-3.58-2.775-14.092-6.454-28.845-9.988a3.094 3.094 0 0 0-1.403.21c-.467.238-.76.719-.758 1.243.229.818.894 1.44 1.725 1.613a89.347 89.347 0 0 1 24.557 8.261 4.147 4.147 0 0 1 2.402 3.582v.258l5.934.016zm5.707-3.969-1.322 3.97h2.322c.258-1.195.484-2.437.693-3.744 0-.887-.21-1.371-.322-1.387-.113-.017-.887.322-1.338 1.161h-.033zm-43.534-4.114a4.275 4.275 0 0 0 2.355 2.598l20.412 5.485h3.692l.226-.29-.193-.532a73.968 73.968 0 0 0-26.524-7.261h.032zM116.187 2.678c3.225-.952 7.288-1.807 9.336-.242a3.948 3.948 0 0 0 2.628-.468c1.225-.613 1.612-1.339 1.612-1.468l-.483-.193a8.65 8.65 0 0 0-.774-.275h-9.417c-1.282.273-2.54.656-3.756 1.146l.854 1.5zM138.68 4.76c-.371.37-.371.597-.371.645 0 .049.258.646 1.983 1.356a2.884 2.884 0 0 0 1.87.112c.484-.193.339-.806.162-1.161-.42-.952-1.758-1.63-3.644-.952zm-3.822-1.033c2.564-1.29 5.628-2.823 10.174.436a2.485 2.485 0 0 1 1.355 2.21c0 .872-.323 1.291-1.613 1.953l.339.79a4.35 4.35 0 0 0 2.45-.355 3.033 3.033 0 0 0 1.597-2.081 3.825 3.825 0 0 0-1.5-3.227c-5.352-3.985-9.545-3.227-14.156-.936l-.613.29c-.516.468-.564.872-.5.985.065.113.887.71 2.484-.049l-.017-.016zm-16.736 2.307 1.612 2.727c8.256-.177 15.205 1.953 20.848 8.068 2.693 4.372 5.337 6.793 7.74 7.164h.564l-.532-.985c-6.111-11.294-14.157-16.893-24.073-16.764a40.023 40.023 0 0 0-6.159-.21zm37.6 13.07c-.757-1.614-1.612-2.162-2.096-2.243a3.046 3.046 0 0 0-1.773.549c-.597.677-.92 1.194-.855 1.516.065.323.58.823 1.274 1.13a5.22 5.22 0 0 0 2.87 0c.366-.174.594-.548.58-.952zm119.074 17.635c-.242 0-.903.34-1.355 1.162l-2.015 6.034h2.564c.435-1.807.806-3.743 1.144-5.792.049-.904-.21-1.371-.338-1.404zm-130.038-3.404c-4.563-4.357-13.27-9.44-16.913-10.391l.741 1.29a98.487 98.487 0 0 1 15.14 11.085c1.79 1.21 1.58-1.516 1.032-1.984zm138.422-3.453c-.56.046-1.066.35-1.37.823-.452.758-.887 1.613-1.29 2.307l-3.644 10.923h2.87a83.33 83.33 0 0 1 4.047-12.633c.129-.468.113-.84-.613-1.42zM6.466 37.724l-.774-.694H5.24a6.457 6.457 0 0 0-1.08 4.163c.161.92.306 1.807.42 2.678h3.724a74.483 74.483 0 0 0-1.838-6.147zM1.08 40.53c-.45.09-.79.462-.838.92-.08.597-.161 1.145-.242 1.71v.774h1.757c0-.58 0-1.177.13-1.758-.097-1.227-.533-1.63-.807-1.646zM3.757 8.519 1 27.22c0 .678.387.743.596.759.21.016.742-.161.968-.855C4.499 22.41 5.4 16.313 5.337 8.503c-.113-.855-.403-1.275-.532-1.29-.13-.017-.774.451-1.048 1.306zm15.817 23.96a1.951 1.951 0 0 0-.66-.612c-.082 0-.323.29-.55 1.08a12.917 12.917 0 0 0 .436 5.696l.097.194c.498 1.629.705 3.333.613 5.034h2.708a17.096 17.096 0 0 0-2.644-11.391zm-6.127 8.423c0-.661 1.242-1.42 1.467-.968.339.742.774 1.371 1.08 1.242 1.113.307 0-4.679 0-4.679-.399-.478-.989-.756-1.612-.758a4.593 4.593 0 0 0-2.305.532c-1.032.226-1.71.759-1.452 2.501.016 1.737.21 3.467.581 5.163h2.741a12.141 12.141 0 0 1-.5-3.033zM215.51 3.97a3.227 3.227 0 0 1-1.822 3.017 5.43 5.43 0 0 1-2.596.468l-17.478-.79h-.387l-.113.129a7.24 7.24 0 0 0 4.386 3.227 84.335 84.335 0 0 0 13.14 1.5h1.194a16.21 16.21 0 0 0 6.45-.613 3.742 3.742 0 0 0 1.612-1.613 12.221 12.221 0 0 0-1.403-9.262h-4.757a5.875 5.875 0 0 1 1.774 3.937zm11.287 39.16-1.613-.452a1.356 1.356 0 0 0-.29 1.065v.193h4.644l-2.741-.806zm-26.008-28.914h-.613l-.225.42a3 3 0 0 0 1.806 2.161c4.22.56 8.377 1.522 12.415 2.873a4.969 4.969 0 0 1 3.224 4.033 2.695 2.695 0 0 1-1.418 2.76 4.06 4.06 0 0 1-2.596.241l-8.707-.613c-.327.276-.476.71-.387 1.13a2.565 2.565 0 0 0 1.725 2.178L217.3 31.01a5.833 5.833 0 0 0 3.031-.403 3.742 3.742 0 0 0 1.612-1.614 12.383 12.383 0 0 0 .887-6.615 7.112 7.112 0 0 0-6.772-5.986l-15.269-2.178zm10.206 9.455a1.42 1.42 0 0 0 .79-1.468 1.5 1.5 0 0 0-1.128-1.227l-6.998-.29-.467.839.612 1.017 6.675 1.306.516-.177zm12.722-9.875c-.04.76.27 1.497.838 2.001a334.563 334.563 0 0 0 39.342 11.295l.758-.097.37-.565c0-.355-.273-.71-.725-.984a200.683 200.683 0 0 0-40.519-12.118l-.064.468zm64.978 12.908c-.242 0-.87.404-1.225 1.275l-3.676 15.957h2.37a54.344 54.344 0 0 0 2.967-15.812c0-.903-.29-1.355-.5-1.371l.064-.049zm-62.479-19.7h-.29l-.274.338a3.42 3.42 0 0 0 1.612 2.501c14.028 3.566 27.862 7.326 42.696 14.135a4.404 4.404 0 0 1 2.95 3.727 4.582 4.582 0 0 1-2.66 4.098 5.527 5.527 0 0 1-3.805.371c-9.078-2.033-18.22-4.953-27.072-7.825-3.854-1.227-7.9-2.55-11.56-3.68h-.823l-.322.937a3.63 3.63 0 0 0 1.612 2.84l28.845 9.551a30.052 30.052 0 0 0 12.69 1.985 23.466 23.466 0 0 0 4.369-1.614c2.644-1.306 4.112-2.985 4.418-4.84.306-1.856-.839-4.195-3.225-6.454-14.801-8.761-30.28-12.714-49.16-16.07zM209.77 41.225l-3.983-.646-.564.113a1.34 1.34 0 0 0-.742 1.291 1.42 1.42 0 0 0 1.177 1.113l4.015.63.92-.113c.467-.242.45-.84.45-1.081a1.726 1.726 0 0 0-1.273-1.307zm-48.661-2c-.774-.856-1.613-1.195-2.096-.969l-.613.807c-.14.806.072 1.634.58 2.275l1.613 2.597h3.611l-3.095-4.71zM79.409 4.081l1.016.323c.951.145 2.112-.13 1.967-.404A17.453 17.453 0 0 0 78.587.032h-4.305c1.515 1.323 3.273 2.663 5.127 4.05zm69.429 32.786c-.356.853-.626 1.74-.807 2.646-.2.715.113 1.474.758 1.84a2.578 2.578 0 0 0 2.66.161l.42-.21h.097l3.966-8.164a2.68 2.68 0 0 0-.274-2.275 2.597 2.597 0 0 0-1.225-1.178c-4.354-.387-8.756-3.098-14.334-7.1a29.798 29.798 0 0 0-15.286-4.84l.871 1.533c7.884 2.066 14.673 4.566 22.09 12.279a5.585 5.585 0 0 1 1.37 4.598l-.306.71zM68.59 21.46l.532.146c.634.1 1.267-.185 1.613-.726a1.34 1.34 0 0 0-.097-1.614l-5.402-4.082-.935.403-.177 1.146 4.466 4.727zM108.045.032H103.4c.097.176.216.339.355.484 9.126 12.424 18.413 25.945 26.604 43.42h4.837a92.81 92.81 0 0 0-5.095-11.892A182.7 182.7 0 0 0 108.045.032zM60.077 9.713a6.449 6.449 0 0 0-1.387-.855l-.274-.129-.726-.403a46.944 46.944 0 0 1-7.336-6.132l-.193.388c-.71 1.613-.694 2.549 0 3.323L53.708 9.6a4.843 4.843 0 0 1 .08 5.422 3.03 3.03 0 0 1-2.821 1.355 4.176 4.176 0 0 1-2.709-1.872c-.226-.451-.467-.677-.693-.71-.226-.032-.371 0-1.032.42-2.467 1.484-2.225 2.743-1.741 3.614 2.29 3.066 4.337 4.68 6.256 5.034a5.48 5.48 0 0 0 4.498-1.968 29.165 29.165 0 0 0 4.466-9.455c.26-.55.266-1.188.016-1.743l.049.016zm-6.772 22.283a1.612 1.612 0 0 0-1.451.613 1.308 1.308 0 0 0 .21 1.533l2.773 2.726.806.404c.435.004.84-.223 1.064-.597a1.501 1.501 0 0 0-.161-1.743l-2.71-2.743-.531-.193zm163.93 4.501a27.7 27.7 0 0 0-11.594-2.485.952.952 0 0 0-.387.969 2.84 2.84 0 0 0 1.613 2.242l6.45 2.13a4.534 4.534 0 0 1 2.385 4.13v.42h5.58c.096-3.162-.372-5.566-4.048-7.406zM7.82 31.092a83.407 83.407 0 0 0 3.644-23.299c0-1.404-.37-2.323-1-2.372l-.903.388a2.55 2.55 0 0 0-.806 1.758C8.4 15.247 7.643 23.8 4.853 28.962a10.563 10.563 0 0 1-4.837 4.18v4.55a11.385 11.385 0 0 0 7.804-6.6zm.064-29.785a2.338 2.338 0 0 0 2 1.613h.613L16.3.032h-8.32a1.615 1.615 0 0 0-.097 1.275zM154.61 25.154c.435.533 4.321.614 6.965-.726a2.387 2.387 0 0 0 1.403-1.258c1-1.936.194-4.324-2.644-7.422-3.273-4.195-7.143-5.18-11.9-3.082a.968.968 0 0 0-.532 1.275c.34.41.839.657 1.371.677 4.273-1.904 7.143-.387 10.013 4.663.806 2.679-.355 3.05-1.258 3.502-.863.4-1.807.593-2.757.564-.557.082-.998.511-1.096 1.065-.033.162.08.436.5.742h-.065zm147.531-1.13-1.031.307a2.97 2.97 0 0 0-1.032 2.13l-.565 4.002c-.306 2.017-.596 4.034-.886 6.05-.29 2.017-.597 3.889-.887 5.793a9.51 9.51 0 0 1-.178 1.613h3.548l2.063-17.99c-.032-1.081-.419-1.807-.967-1.904h-.065zm-5.45-10.567a7.309 7.309 0 0 0-.644-.84A158.361 158.361 0 0 0 272.345.033h-13.866a244.765 244.765 0 0 1 29.216 12.698c1.612 1 2.305 2.001 2.257 2.97a1.613 1.613 0 0 1-1.016 1.403 6.446 6.446 0 0 1-5.127-.58A226.18 226.18 0 0 0 239.308.032H224.99c.363.43.807.786 1.306 1.048 12.076 2.388 26.959 8.068 40.083 13.15l.468.145c9.351 3.614 17.446 6.696 22.121 7.664 2.074.183 4.16-.184 6.047-1.065a5.162 5.162 0 0 0 3.096-3.55 4.278 4.278 0 0 0-.694-3.081 8.808 8.808 0 0 0-.725-.887zm-269.265 27.3c-.822.355-.87.565-.387 1.613.255.84.96 1.463 1.822 1.614a5.35 5.35 0 0 0 2.258-.339l4.337-3.695.548-.92c0-.08-.097-.242-.613-.322-2.192-.5-3.386-2.663-4.498-4.631a10.47 10.47 0 0 0-3.467-4.163l-.854-.29a1 1 0 0 0-1 .274c-.226.178-.145.452 0 .92.436.985.976 1.921 1.613 2.791 1.531 2.243 3.37 5.034.241 7.148zM174.474.355c-1.85.772-3.85 1.12-5.853 1.016l-.306.791c.039.39.305.72.677.84l4.16.725c5.273-.855 8.062 1.356 8.981 3.534a3.229 3.229 0 0 1-1.37 4.356 6.558 6.558 0 0 1-4.257.178 3.969 3.969 0 0 0 1.419 1.758c4.595 2.663 9.061 2.663 11.464 1.436a2.871 2.871 0 0 0 1.838-2.162c.145-1.339-.774-2.791-2.677-4.292a27.807 27.807 0 0 1-8.384-8.438h-5.111c-.194.048-.371.161-.58.258zM17.85 5.389a2.937 2.937 0 0 0-1.032 2.13l-.564 3.985a275.23 275.23 0 0 0-.887 6.067c-.274 2.017-.597 3.888-.839 5.792a7.117 7.117 0 0 1-2.87 6.019l-.112.129a8.581 8.581 0 0 0-1.855 1.936c-1.048 2.582-.806 3.227-.71 3.437h.21c.36.037.724-.007 1.065-.13 4.708-3.017 7.142-6.114 7.513-9.777l2.129-17.974c0-1.098-.468-1.84-1.016-1.92l-1.032.306zm190.824-1.613c.854-.42 1.612-1.275 1.306-1.404C206.609.629 188.244.758 188.244.758c.378.508.877.912 1.451 1.178a88.122 88.122 0 0 0 17.962 2.13l1.016-.29zM170.798 43.87a15.289 15.289 0 0 0 1.741-12.666 7.243 7.243 0 0 0-3.756-4.276c-1.822-.694-4.24-.42-7.369.855l-.822.307c-1.29.661-1.774 1.613-1.613 2.372.167.508.602.88 1.13.968l4.288-1.097a4.35 4.35 0 0 1 3.225.597 7.78 7.78 0 0 1 1.773 5.534c-.903 4.566-2.193 5.39-.435 7.196l.21.274h1.612l.016-.064zm-4.144-8.939c-1.338-2.033-2.386-1.468-2.821-1.275a7.966 7.966 0 0 0-1.532 1.178 1.614 1.614 0 0 0-.355 1.727 2.208 2.208 0 0 0 2.08.694 10.04 10.04 0 0 0 1.5-.581c1.515-.775 1.354-1.259 1.128-1.743zm26.443-5.34a4.657 4.657 0 0 1-3.386 0c-.484-.243-.822-.29-1.032-.178-.21.113-.306.177-.532.904-1 2.533 0 3.404 1 3.84 3.837 1.194 6.546 1.355 8.255.516a4.712 4.712 0 0 0 2.241-4.098 27.977 27.977 0 0 0-2.676-10.02 2.323 2.323 0 0 0-1.08-1.323 7.54 7.54 0 0 0-1.613.08h-.306l-.855.081a52.237 52.237 0 0 1-9.884-.823l.097.404c.452 1.613 1.145 2.42 2.241 2.63l5.305 1.032a5.275 5.275 0 0 1 3.628 4.276 2.63 2.63 0 0 1-1.403 2.678zm-30.36-19.362 1.257 1.339c9.948 10.89 16.333 17.877 11.4 32.415h6.449a36.65 36.65 0 0 0 1.145-6.938C184.922 24.638 168.96 8.76 159.157.08h-7.772a61.042 61.042 0 0 1 11.351 10.1v.049zM26.346 6.067c.273-2.34-.936-2.485-1.404-2.566a7.428 7.428 0 0 0-1.999.097 1.774 1.774 0 0 0-1.419 1.178c-.113.549.387 1.21 1.193 1.613a11.57 11.57 0 0 0 1.613.372c1.693.306 1.934-.242 2.015-.694zm3.401-2.646a7.812 7.812 0 0 1-2.241 5.373c-3.725 3.227-5.289 3.097-5.079 5.518-.113 1.08.355 1.161.597 1.194h.741c4.966-2.179 8.207-5.26 9.771-9.133A6.458 6.458 0 0 0 33.36.887a5.84 5.84 0 0 0-.726-.855h-8.19l3.224 1.146a3.84 3.84 0 0 1 2.08 2.243zm8.965 33.076c.673.067 1.35-.08 1.935-.42a42.81 42.81 0 0 1 4.16-3.049 15.144 15.144 0 0 0 5.675-5.066c.339-1.017.29-1.404.21-1.533-.08-.129-.274-.242-1.242-.403-3.676-.759-5.836-3.227-8.062-5.809l-.757-.403a1.805 1.805 0 0 0-1.613.71 1.195 1.195 0 0 0-.274 1.274l3.547 4.84a2.874 2.874 0 0 1-.483 3.083 3.433 3.433 0 0 1-2.983 1.242 2.434 2.434 0 0 1-1.467-.71l-3.79-3.711-.838-.323a1.386 1.386 0 0 0-1.322.613 1.275 1.275 0 0 0-.097 1.323 35.253 35.253 0 0 0 5.353 7.132c.53.62 1.25 1.045 2.048 1.21zM22.83 26.171h.242c5.176-1.307 10.029-4.421 14.85-9.487 4.192-3.792 6.143-9.94 6.852-16.684h-5.11c-.952 8.116-4.935 14.44-17.076 20.895a3.567 3.567 0 0 0-1.274 3.743c.135.79.758 1.406 1.548 1.533h-.032zM61.463.032H52.58a9.124 9.124 0 0 0 5.03 2.71 3.223 3.223 0 0 0 2.935-.757 3.228 3.228 0 0 0 .92-1.953zm299.9 37.788L351.158 26.43l-.516-.339-.483.178a2.81 2.81 0 0 0-.242 2.791 58.68 58.68 0 0 1 7.497 10.068c.823 1.54.71 3.41-.29 4.84h6.192a6.312 6.312 0 0 0-1.903-6.147h-.048zm88.004-22.847a7.816 7.816 0 0 1-2.403.807l-.322.274c.211.24.462.442.742.597a12.89 12.89 0 0 0 8.239-.645 3.356 3.356 0 0 0 2.193-2.76c0-1.758-1.984-3.904-5.466-5.953l-.613-.436-.145-.129-.113-.242c-.161-.306-.435-1.016-4.837-1.888h-.242c.177.727-.29 1.614-1.37 2.324a18.75 18.75 0 0 1-2.42 1.452c-.902.452-2.03.936-3.369 1.468l-.339.484a2.546 2.546 0 0 0 2.516.646c6.11-2.84 9.32-2.033 10.303-.355.983 1.678-.242 3.291-2.354 4.356zm15.543 16.135a6.703 6.703 0 0 1-4.257.162 3.92 3.92 0 0 0 1.403 1.742c4.595 2.679 9.062 2.679 11.464 1.452a2.84 2.84 0 0 0 1.838-2.226c.161-1.34-.774-2.792-2.676-4.292a28.31 28.31 0 0 1-9.481-10.278c-.452-.79-.774-.952-1.145-1.033a5.05 5.05 0 0 0-1.016 1.259 7.724 7.724 0 0 1-2.418 1.936c-1.85.772-3.85 1.12-5.853 1.016l-.323.791a1 1 0 0 0 .645.871l4.144.726c5.289-.871 8.062 1.356 8.997 3.518.8 1.586.22 3.522-1.322 4.405v-.049zM432.566 5.292l-.532.484c3.288.572 6.67.22 9.77-1.016 1.242-.678 1.532-1.178 1.613-1.436-.047-.4-.243-.77-.548-1.033A52.552 52.552 0 0 0 437.87.065h-6.224l1.048.37c1.532.646 2.273 1.372 2.306 2.276.032.903-.774 1.79-2.435 2.614v-.033zm-6.579-3.436a9.67 9.67 0 0 0-3.386 1.08c-.967.5-1.983 1.114-2.692 1.614-.323.274-.371.452-.323.533.049.08.484.5 1.613.484a12.892 12.892 0 0 0 4.16-1.178 5.966 5.966 0 0 0 1.838-1.34c.403-.596.322-.774.29-.806-.032-.033-.194-.34-1.5-.387zm-18.622 3.033c1.418-.871 2.902-1.727 4.45-2.485a37.408 37.408 0 0 1 5.917-2.372h-6.723a52.342 52.342 0 0 0-3.677 1.694 68.005 68.005 0 0 0-4.176 2.275c-.516.34-.774.694-.71.807.388.613 2.887.984 4.919.08zm73.75 35.158a2.275 2.275 0 0 0-1.081-1.323 6.8 6.8 0 0 0-1.612.08h-.29l-.855.081a52.125 52.125 0 0 1-9.884-.823l.097.404c.451 1.613 1.128 2.42 2.24 2.63l5.29 1.032a5.772 5.772 0 0 1 2.547 1.76h5.095a35.786 35.786 0 0 0-1.548-3.841zm-68.833-2.017a19.094 19.094 0 0 0-3.015-.258l.839 1.452a13.33 13.33 0 0 1 10.335 4.695h1.806c-2.838-3.775-6.24-5.76-9.965-5.889zm95.017 2.388a1.805 1.805 0 0 0-1.338.355 1.614 1.614 0 0 0-.694 1.29l-.338 1.872h3.74c.097-.548.194-1.097.307-1.613a1.855 1.855 0 0 0-1.677-1.904zm-60.109 2.275c.984-1.936.194-4.324-2.644-7.422-3.354-4.195-7.288-5.18-11.964-3.082a.968.968 0 0 0-.532 1.275c.33.41.827.653 1.354.661 4.273-1.887 7.16-.37 10.013 4.663.806 2.695-.355 3.066-1.241 3.518-.87.4-1.818.593-2.774.565a1.242 1.242 0 0 0-1.08 1.064h7.514a2.532 2.532 0 0 0 1.354-1.242zm-60.206-30.511h-.354a5.7 5.7 0 0 0 .435 5.389 313.043 313.043 0 0 1 17.043 26.332h5.788a194.118 194.118 0 0 0-21.977-30.801c-.387-.581-.66-.856-.935-.92zM65.64 35.287a24.084 24.084 0 0 0-7.578-8.39c-.395.003-.759.218-.951.565a2.615 2.615 0 0 0-.145 2.71l3.74 5.244A4.31 4.31 0 0 1 59.788 40a4.707 4.707 0 0 1-4.128 1.871 3.45 3.45 0 0 1-1.983-.936l-4.354-4.195-.677-.5c-.451 0-1 .339-1.338.984-.339.646-.597 1.614 0 2.179l4.627 4.485h11.529c2.499-2.63 4.015-4.889 2.176-8.6zm373.65 4.211c.335-.166.556-.498.58-.87-.773-1.614-1.611-2.163-2.095-2.26a3.223 3.223 0 0 0-1.79.565c-.596.678-.919 1.194-.854 1.517.064.322.58.822 1.273 1.113a4.947 4.947 0 0 0 2.886-.065zm-27.716-6.84a30.034 30.034 0 0 0-4.402-.356l1.016 2c5.885.13 10.738 1.856 14.511 6.455.611 1.149 1.34 2.23 2.177 3.227h2.418c-3.82-7.342-9.093-11.117-15.72-11.327zm100.24-22.025c-.524.079-.976.41-1.209.887-.37.759 0 0-1.048 2.324-6.546 21.992-2.37 22.944-2.37 22.944a4.69 4.69 0 0 0 2.854 1.13 7.009 7.009 0 0 0 1.806-.13v-4.582a2.481 2.481 0 0 1-.758.08c-.806 0-2.144-.597-2.128-3.598a76.366 76.366 0 0 1 2.886-15.538l-.032-3.517zM323.764 3.71a3.664 3.664 0 0 1 1.306 2.824 2.081 2.081 0 0 1-1.048 1.323c-1.68.655-3.497.888-5.288.677a61.67 61.67 0 0 1-20.961-5.163c-2.306-1.162-4.563-2.259-6.772-3.34h-10.819c9.078 4.066 15.124 5.357 22.573 9.778.274.261.522.547.742.855 12.157 4.84 23.476 4.308 34.601-1.855a54.071 54.071 0 0 0 3.225-1.969c1.612-1.387 1.483-1.952 1.467-1.968-.016-.016-.58-.468-1.773-.613A36.55 36.55 0 0 1 327.762.032h-9.577l5.578 3.679zm-11.802 1.436a5.092 5.092 0 0 0 3.225-.258.92.92 0 0 0 .564-.726c0-.823-1.145-2-3.031-3.146L310.96.032h-9.432l10.432 5.115zM492.24 39.224c.414-.264.594-.777.435-1.242a1.258 1.258 0 0 0-1.048-.888l-5.53.258-.275.71.613.791 5.434.549.37-.178zM91.55 37.288c-2.047-3.227-4.176-6.632-6.175-9.681l-.645-.452-.92.516a3.422 3.422 0 0 0-.757 3.13l8.062 13.118h4.676c-1.435-2.194-2.838-4.42-4.24-6.631zM.63 11.956a1.243 1.243 0 0 0-.613-1.29v3.371c.194-.726.403-1.436.613-2.081zM396.916.032h-5.498a8.922 8.922 0 0 0-.66.84 9.425 9.425 0 0 0-1.29 2.403s-2.726 7.439 6.11 10.633c3.45 1.243 6.45.823 10.03.5 1.853-.16 3.224-.258 4.578-.306 2.564 0 5.176 0 7.756.21 10.012.387 17.623 2.936 28.942 15.392l1.241 1.34a74.583 74.583 0 0 1 10.303 12.908h5.805c-6.192-11.892-20.268-23.848-25.911-28.608a26.784 26.784 0 0 0-19.348-5.582l-20.203.726a6.885 6.885 0 0 1-5.208-3.615c-.887-1.92.193-2.92 1.709-5.017.478-.668 1.03-1.28 1.644-1.824zM379.18 5.615a2.922 2.922 0 0 1 0 3.534 3.062 3.062 0 0 1-3.224.984 6.448 6.448 0 0 1-2.693-1.404 81.664 81.664 0 0 0-8.594-8.697h-4.015a155.872 155.872 0 0 1 14.383 14.231 6.917 6.917 0 0 0 3.224 2.114 4.013 4.013 0 0 0 3.386-1.097c3.225-4.34 2.08-9.326-3.386-15.15l-.129-.098h-4.208a59.683 59.683 0 0 1 5.224 5.583h.032zm74.572-4.276h-.403a11.99 11.99 0 0 0 4.66 1.307c11.98-.758 32.15-1.162 42.083.92a2.871 2.871 0 0 1 2.305 2.468 2.614 2.614 0 0 1-1.74 2.42 6.816 6.816 0 0 1-2.92.485 155.567 155.567 0 0 0-33.859-1.485l-.097.517a2.29 2.29 0 0 0 2.451 1.29 213.67 213.67 0 0 1 36.391 2.647 7.283 7.283 0 0 0 3.676-.259 3.324 3.324 0 0 0 1.839-2.613c-.404-4.84-4.435-7.713-12.254-8.81-1.87 0-4.08-.145-6.45-.194h-19.526c-5.41.05-10.808.487-16.156 1.307zm45.824 14.618c-9.126-2.42-19.816-3.227-33.602-2.742l-.21.548a2.612 2.612 0 0 0 2.258 1.759c2.483.242 5.933.323 9.932.403 7.74.162 15.704.323 18.187 1.92a5.68 5.68 0 0 1 3.225 4.84 3.227 3.227 0 0 1-1.838 2.953c-.81.383-1.7.566-2.596.533l-17.413-.436h-.387l-.113.13a6.756 6.756 0 0 0 4.321 2.968 83.786 83.786 0 0 0 13.06 1.194h1.177a16.967 16.967 0 0 0 6.45-.726 3.92 3.92 0 0 0 1.612-1.613c1.387-4.421-1.08-10.165-4.063-11.73zm1.886 26.672c.434-1.784.378-3.651-.16-5.406a6.16 6.16 0 0 0-6.096-4.324l-12.367-.71-.467.097-.13.355c.29.768.913 1.362 1.694 1.613 3.419.142 6.815.617 10.142 1.42a4.387 4.387 0 0 1 3.063 3.018c.273.86-.04 1.798-.774 2.323a3.03 3.03 0 0 1-2 .387l-6.948.13a.969.969 0 0 0-.146.951c.18.615.59 1.135 1.145 1.452h12.077c.441-.333.777-.787.967-1.306zM399.48 20.7l.855 1.5c3.224-.951 7.288-1.806 9.335-.241a4.045 4.045 0 0 0 2.628-.468c1.226-.613 1.613-1.34 1.613-1.485l-.5-.177c-3.37-1.468-9.69-.904-13.93.871zm93.324 2.533c.854-.435 1.612-1.274 1.306-1.403-3.37-1.743-21.735-1.614-21.735-1.614.385.508.889.913 1.467 1.178a88.09 88.09 0 0 0 17.946 2.13l1.016-.29zm-80.022 20.524.29.177h2.612a21.13 21.13 0 0 0-3.66-1.468l.758 1.291zM99.596 5.712l-.468-.468-.483.371a5.586 5.586 0 0 0-1 5.034c7.272 8.874 14.27 21.766 20.477 33.286h6.046c-7.126-14.134-16.236-26.945-24.572-38.223zm54.498 37.61-.452.613h2.097c-.613-.597-1.21-.822-1.645-.613zm-21.735-12.537 2.983 5.212a17.506 17.506 0 0 1 5.676 7.938h4.837a5.923 5.923 0 0 0-.403-.774 46.514 46.514 0 0 0-13.093-12.376zm162.591-5.453-1.015.323a2.647 2.647 0 0 0-.984 1.758 83.292 83.292 0 0 1-3.225 16.522h3.225a92.205 92.205 0 0 0 2.95-16.134c.081-1.404-.273-2.372-.95-2.47zm12.206 9.68h.822c4.982-2.177 8.223-5.26 9.787-9.132a6.458 6.458 0 0 0-.177-5.485c-1-1.614-3.112-2.663-6.45-3.389l-.87-.21a2.788 2.788 0 0 0-2.854 1 1.243 1.243 0 0 0 .258 1.388l4.144 1.485a3.984 3.984 0 0 1 2.144 2.243 7.893 7.893 0 0 1-2.241 5.389c-3.74 3.162-5.353 3.114-5.16 5.502-.096 1.113.355 1.194.597 1.226v-.016zm14.947 1.211c5.191-4.711 6.949-12.376 7.142-20.975l-5.191 1.177c-.242 8.842-2.645 14.99-12.9 21.46l-.918-.581.741.694a75.482 75.482 0 0 1-4.256 2.436 3.535 3.535 0 0 0-1.323 3.501h6.66a36.394 36.394 0 0 0 10.045-7.696v-.016zM67.22 8.423l-.532-.291-.452.21a2.745 2.745 0 0 0 0 2.727 56.815 56.815 0 0 1 8.062 9.148 4.52 4.52 0 0 1 0 5.002 3.095 3.095 0 0 1-2.95 1.404 3.869 3.869 0 0 1-2.226-1.227l-6.659-5.308a1.387 1.387 0 0 0-1.064.694 2.325 2.325 0 0 0 0 2.678l7.949 7.535a5.416 5.416 0 0 0 2.676 1.356 4.157 4.157 0 0 0 2.37-.388 13.935 13.935 0 0 0 5.063-4.84 6.344 6.344 0 0 0-1.467-8.52L67.22 8.424zm238.436 15.876c-.096.549.387 1.194 1.194 1.694a11.57 11.57 0 0 0 1.612.372c1.725.225 1.967-.323 2.064-.775.274-2.34-.935-2.5-1.42-2.565a8.056 8.056 0 0 0-1.998 0 1.87 1.87 0 0 0-1.452 1.274zM78.7 34.9a1.612 1.612 0 0 0-1.435.55c-.359.749-.245 1.64.29 2.275a84.082 84.082 0 0 1 5.401 6.211h3.886c-1.988-2.613-4.283-5.42-6.885-8.422A2.676 2.676 0 0 0 78.7 34.9zm-7.74 3.228a3.859 3.859 0 0 0 .162 3.388l1.934 2.388h3.999a62.804 62.804 0 0 0-6.095-5.744v-.032zm14.802-23.105c4.047-2.84 5.966-8.988 4.66-11.989-.774-1-1.597-2-2.467-3H84.73a8.068 8.068 0 0 1 1.773 2.597 5.715 5.715 0 0 1-.741 5.776 3.707 3.707 0 0 1-3.515 1.388 5.303 5.303 0 0 1-2.386-1.049L68.574.032h-2.58a7.392 7.392 0 0 0 1.42 3.227 73.831 73.831 0 0 0 9.496 8.471l.951.662a14.96 14.96 0 0 0 5.498 3.05 4.173 4.173 0 0 0 2.403-.42zm7.852 1.065-.451.096a3.229 3.229 0 0 0-.516 2.872 246.264 246.264 0 0 1 16.623 24.88h4.58c-5.096-9.551-11.884-18.2-20.042-27.655l-.194-.193zm6.853 27.848h4.192a174.454 174.454 0 0 0-16.285-23.411l-.371.306a2.55 2.55 0 0 0-.822 2.017 279.215 279.215 0 0 0 13.286 21.088zM364.266 22.96l1.016.42c1 .225 2.225 0 2.096-.259-1.306-3.469-15.705-14.989-15.705-14.989a3.504 3.504 0 0 0 .226 1.84 81.457 81.457 0 0 0 12.367 12.94v.048zm18.123-.645-.5.37a5.65 5.65 0 0 0-1.064 5.019c3.95 5.158 7.518 10.6 10.674 16.28h5.708c-4.692-7.551-9.675-14.635-14.35-21.201l-.468-.468zm-5.692 10.762-.435.096a3.229 3.229 0 0 0-.58 2.856c1.886 2.646 3.756 5.276 5.578 7.955h4.225c-2.645-3.518-5.515-7.067-8.578-10.714l-.21-.193zm-41.599 2.936a4.418 4.418 0 0 1-2.709-1.888c-.225-.468-.451-.677-.693-.71-.242-.032-.355 0-1.016.42-2.467 1.484-2.225 2.727-1.741 3.614 2.29 3.082 4.337 4.712 6.24 4.986a5.529 5.529 0 0 0 4.515-2.05 29.504 29.504 0 0 0 4.466-9.454 2.18 2.18 0 0 0 0-1.614 6.046 6.046 0 0 0-1.387-.839l-.258-.129-.677-.516a47.863 47.863 0 0 1-7.336-6.131l-.194.387c-.693 1.516-.677 2.55 0 3.324l3.531 3.759a4.746 4.746 0 0 1 0 5.405 3.03 3.03 0 0 1-2.74 1.388v.048zm87.73-11.665c-.356.37-.356.597-.356.629 0 .032.258.661 1.968 1.371.599.245 1.262.285 1.886.113.468-.193.339-.806.145-1.161-.467-1.033-1.757-1.695-3.644-1v.048zm-74.283 8.922-1 .355-.29 1.178 4.257 5.163.532.194c.65.17 1.338-.08 1.725-.63a1.388 1.388 0 0 0 0-1.613l-5.224-4.647zm80.36-5.357.356.791a4.254 4.254 0 0 0 2.45-.355 2.968 2.968 0 0 0 1.71-2.178 3.744 3.744 0 0 0-1.484-3.227c-5.37-3.985-9.545-3.227-14.157-.952l-.612.306c-.532.468-.58.872-.516.985.064.113.903.71 2.499 0 2.564-1.291 5.611-2.84 10.174.42 1.225.903 1.37 1.71 1.338 2.258-.145.871-.467 1.29-1.757 1.952zm-25.974-2.694 1.612 2.743c8.271-.194 15.205 1.936 20.864 8.067 2.693 4.373 5.32 6.793 7.74 7.164h.548l-.468-1.032c-6.11-11.295-14.157-16.894-24.073-16.765a39.943 39.943 0 0 0-6.288-.177h.065zm-57.643 12.908a1.45 1.45 0 0 0-1.16.63 2.454 2.454 0 0 0-.307 2.774L346.046 44h5.434l-6.192-5.873zM359.3 8.617c5.804 5.178 11.802 10.535 12.48 13.407a5.876 5.876 0 0 1-1.29 5.906 3.949 3.949 0 0 1-3.693 1.161 5.416 5.416 0 0 1-2.386-1.274l-13.076-11.763-.29-.258h-.178a6.328 6.328 0 0 0 1.032 5.196 73.715 73.715 0 0 0 9.094 9.584l.919.758a15.768 15.768 0 0 0 5.45 3.582 4.415 4.415 0 0 0 2.515-.177c4.466-2.614 7.014-8.794 5.934-11.989-4.838-7.438-11.835-14.683-21.848-22.589h-2.709c.025.636.264 1.244.677 1.727 1.71 1.662 4.29 3.985 7.304 6.664l.065.064zm-19.687 7.615a6.175 6.175 0 0 1-3.515-2.227c-.22.71-.22 1.47 0 2.178 1.903 4.663 5.466 7.132 8.19 7.487a3.223 3.223 0 0 0 2.935-.758c1-.985 1.226-2.663.694-4.84a26.51 26.51 0 0 1-1.29-10.166 8.707 8.707 0 0 1-3.177 2.307 4.844 4.844 0 0 1 0 3.227 3.79 3.79 0 0 1-3.902 2.727l.065.065zm31.409 21.475a2.599 2.599 0 0 0-.855 2.001c.774 1.42 1.613 2.824 2.37 4.227h3.822a501.785 501.785 0 0 0-4.95-6.534l-.387.306zm-45.469 2.033-.758-.403a1.838 1.838 0 0 0-1.612.694c-.337.338-.45.84-.29 1.29l1.886 2.614h5.111a23.483 23.483 0 0 1-4.337-4.195zM711.95 43.935h-5.66a3.226 3.226 0 0 0-1.322-1.355l-6.062-1.952a1.259 1.259 0 0 1-.63-1.178 1.614 1.614 0 0 1 .855-1.468l.871-.097c3.499.839 6.836 1.613 10.27.177.855-.42 1.081-.435 1.258-.37.178.064.436.322.839 1.338a10.35 10.35 0 0 1-.42 4.905zM556.018 39.45l-.468-.436c-.44.038-.839.276-1.08.646a2.793 2.793 0 0 0-.532 2.791l.822 1.484h4.353a25.171 25.171 0 0 0-3.095-4.485zm217.202 4.485a12.779 12.779 0 0 0-3.612-5.195c-3.58-2.775-14.092-6.454-28.845-9.988a3.094 3.094 0 0 0-1.403.21c-.467.238-.76.719-.758 1.243.229.818.894 1.44 1.725 1.613a89.347 89.347 0 0 1 24.557 8.261 4.147 4.147 0 0 1 2.402 3.582v.258l5.934.016zm5.707-3.969-1.322 3.97h2.322c.258-1.195.484-2.437.693-3.744 0-.887-.21-1.371-.322-1.387-.113-.017-.887.322-1.338 1.161h-.033zm-43.534-4.114a4.275 4.275 0 0 0 2.355 2.598l20.412 5.485h3.692l.226-.29-.193-.532a73.968 73.968 0 0 0-26.524-7.261h.032zM628.187 2.678c3.225-.952 7.288-1.807 9.336-.242a3.948 3.948 0 0 0 2.628-.468c1.225-.613 1.612-1.339 1.612-1.468l-.483-.193a8.65 8.65 0 0 0-.774-.275h-9.417c-1.282.273-2.54.656-3.756 1.146l.854 1.5zM650.68 4.76c-.371.37-.371.597-.371.645 0 .049.258.646 1.983 1.356a2.884 2.884 0 0 0 1.87.112c.484-.193.339-.806.162-1.161-.42-.952-1.758-1.63-3.644-.952zm-3.822-1.033c2.564-1.29 5.628-2.823 10.174.436a2.485 2.485 0 0 1 1.355 2.21c0 .872-.323 1.291-1.613 1.953l.339.79a4.35 4.35 0 0 0 2.45-.355 3.033 3.033 0 0 0 1.597-2.081 3.825 3.825 0 0 0-1.5-3.227c-5.352-3.985-9.545-3.227-14.156-.936l-.613.29c-.516.468-.564.872-.5.985.065.113.887.71 2.484-.049l-.017-.016zm-16.736 2.307 1.612 2.727c8.256-.177 15.205 1.953 20.848 8.068 2.693 4.372 5.337 6.793 7.74 7.164h.564l-.532-.985c-6.111-11.294-14.157-16.893-24.073-16.764a40.023 40.023 0 0 0-6.159-.21zm37.6 13.07c-.757-1.614-1.612-2.162-2.096-2.243a3.046 3.046 0 0 0-1.773.549c-.597.677-.92 1.194-.855 1.516.065.323.58.823 1.274 1.13a5.22 5.22 0 0 0 2.87 0c.366-.174.594-.548.58-.952zm119.074 17.635c-.242 0-.903.34-1.355 1.162l-2.015 6.034h2.564c.435-1.807.806-3.743 1.144-5.792.049-.904-.21-1.371-.338-1.404zm-130.038-3.404c-4.563-4.357-13.27-9.44-16.913-10.391l.741 1.29a98.487 98.487 0 0 1 15.14 11.085c1.79 1.21 1.58-1.516 1.032-1.984zm138.422-3.453c-.56.046-1.066.35-1.37.823-.452.758-.887 1.613-1.29 2.307l-3.644 10.923h2.87a83.33 83.33 0 0 1 4.047-12.633c.129-.468.113-.84-.613-1.42zm-276.714 7.842-.774-.694h-.452a6.457 6.457 0 0 0-1.08 4.163c.161.92.306 1.807.42 2.678h3.724a74.483 74.483 0 0 0-1.838-6.147zm-5.386 2.807c-.45.09-.79.462-.838.92-.08.597-.161 1.145-.242 1.71v.774h1.757c0-.58 0-1.177.13-1.758-.097-1.227-.533-1.63-.807-1.646zm2.677-32.012L513 27.22c0 .678.387.743.596.759.21.016.742-.161.968-.855 1.935-4.712 2.837-10.81 2.773-18.62-.113-.855-.403-1.275-.532-1.29-.13-.017-.774.451-1.048 1.306zm15.817 23.96a1.951 1.951 0 0 0-.66-.612c-.082 0-.323.29-.55 1.08a12.917 12.917 0 0 0 .436 5.696l.097.194c.498 1.629.705 3.333.613 5.034h2.708a17.096 17.096 0 0 0-2.644-11.391zm-6.127 8.423c0-.661 1.242-1.42 1.467-.968.339.742.774 1.371 1.08 1.242 1.113.307 0-4.679 0-4.679-.399-.478-.989-.756-1.612-.758a4.593 4.593 0 0 0-2.305.532c-1.032.226-1.71.759-1.452 2.501.016 1.737.21 3.467.581 5.163h2.741a12.141 12.141 0 0 1-.5-3.033zM727.51 3.97a3.227 3.227 0 0 1-1.822 3.017 5.43 5.43 0 0 1-2.596.468l-17.478-.79h-.387l-.113.129a7.24 7.24 0 0 0 4.386 3.227 84.335 84.335 0 0 0 13.14 1.5h1.194a16.21 16.21 0 0 0 6.45-.613 3.742 3.742 0 0 0 1.612-1.613 12.221 12.221 0 0 0-1.403-9.262h-4.757a5.875 5.875 0 0 1 1.774 3.937zm11.287 39.16-1.613-.452a1.356 1.356 0 0 0-.29 1.065v.193h4.644l-2.741-.806zm-26.008-28.914h-.613l-.225.42a3 3 0 0 0 1.806 2.161c4.22.56 8.377 1.522 12.415 2.873a4.969 4.969 0 0 1 3.224 4.033 2.695 2.695 0 0 1-1.418 2.76 4.06 4.06 0 0 1-2.596.241l-8.707-.613c-.327.276-.476.71-.387 1.13a2.565 2.565 0 0 0 1.725 2.178L729.3 31.01a5.833 5.833 0 0 0 3.031-.403 3.742 3.742 0 0 0 1.612-1.614 12.383 12.383 0 0 0 .887-6.615 7.112 7.112 0 0 0-6.772-5.986l-15.269-2.178zm10.206 9.455a1.42 1.42 0 0 0 .79-1.468 1.5 1.5 0 0 0-1.128-1.227l-6.998-.29-.467.839.612 1.017 6.675 1.306.516-.177zm12.722-9.875c-.04.76.27 1.497.838 2.001a334.563 334.563 0 0 0 39.342 11.295l.758-.097.37-.565c0-.355-.273-.71-.725-.984a200.683 200.683 0 0 0-40.519-12.118l-.064.468zm64.978 12.908c-.242 0-.87.404-1.225 1.275l-3.676 15.957h2.37a54.344 54.344 0 0 0 2.967-15.812c0-.903-.29-1.355-.5-1.371l.064-.049zm-62.479-19.7h-.29l-.274.338a3.42 3.42 0 0 0 1.612 2.501c14.028 3.566 27.862 7.326 42.696 14.135a4.404 4.404 0 0 1 2.95 3.727 4.582 4.582 0 0 1-2.66 4.098 5.527 5.527 0 0 1-3.805.371c-9.078-2.033-18.22-4.953-27.072-7.825-3.854-1.227-7.9-2.55-11.56-3.68h-.823l-.322.937a3.63 3.63 0 0 0 1.612 2.84l28.845 9.551a30.052 30.052 0 0 0 12.69 1.985 23.466 23.466 0 0 0 4.369-1.614c2.644-1.306 4.112-2.985 4.418-4.84.306-1.856-.839-4.195-3.225-6.454-14.801-8.761-30.28-12.714-49.16-16.07zM721.77 41.225l-3.983-.646-.564.113a1.34 1.34 0 0 0-.742 1.291 1.42 1.42 0 0 0 1.177 1.113l4.015.63.92-.113c.467-.242.45-.84.45-1.081a1.726 1.726 0 0 0-1.273-1.307zm-48.661-2c-.774-.856-1.613-1.195-2.096-.969l-.613.807c-.14.806.072 1.634.58 2.275l1.613 2.597h3.611l-3.095-4.71zM591.409 4.081l1.016.323c.951.145 2.112-.13 1.967-.404a17.453 17.453 0 0 0-3.805-3.969h-4.305c1.515 1.323 3.273 2.663 5.127 4.05zm69.429 32.786c-.356.853-.626 1.74-.807 2.646-.2.715.113 1.474.758 1.84a2.578 2.578 0 0 0 2.66.161l.42-.21h.097l3.966-8.164a2.68 2.68 0 0 0-.274-2.275 2.597 2.597 0 0 0-1.225-1.178c-4.354-.387-8.756-3.098-14.334-7.1a29.798 29.798 0 0 0-15.286-4.84l.871 1.533c7.884 2.066 14.673 4.566 22.09 12.279a5.585 5.585 0 0 1 1.37 4.598l-.306.71zM580.59 21.46l.532.146c.634.1 1.267-.185 1.613-.726a1.34 1.34 0 0 0-.097-1.614l-5.402-4.082-.935.403-.177 1.146 4.466 4.727zM620.045.032H615.4c.097.176.216.339.355.484 9.126 12.424 18.413 25.945 26.604 43.42h4.837a92.81 92.81 0 0 0-5.095-11.892A182.7 182.7 0 0 0 620.045.032zm-47.968 9.681a6.449 6.449 0 0 0-1.387-.855l-.274-.129-.726-.403a46.944 46.944 0 0 1-7.336-6.132l-.193.388c-.71 1.613-.694 2.549 0 3.323l3.547 3.695a4.843 4.843 0 0 1 .08 5.422 3.03 3.03 0 0 1-2.821 1.355 4.176 4.176 0 0 1-2.709-1.872c-.226-.451-.467-.677-.693-.71-.226-.032-.371 0-1.032.42-2.467 1.484-2.225 2.743-1.741 3.614 2.29 3.066 4.337 4.68 6.256 5.034a5.48 5.48 0 0 0 4.498-1.968 29.165 29.165 0 0 0 4.466-9.455c.26-.55.266-1.188.016-1.743l.049.016zm-6.772 22.283a1.612 1.612 0 0 0-1.451.613 1.308 1.308 0 0 0 .21 1.533l2.773 2.726.806.404c.435.004.84-.223 1.064-.597a1.501 1.501 0 0 0-.161-1.743l-2.71-2.743-.531-.193zm163.93 4.501a27.7 27.7 0 0 0-11.594-2.485.952.952 0 0 0-.387.969 2.84 2.84 0 0 0 1.613 2.242l6.45 2.13a4.534 4.534 0 0 1 2.385 4.13v.42h5.58c.096-3.162-.372-5.566-4.048-7.406zM519.82 31.092a83.407 83.407 0 0 0 3.644-23.299c0-1.404-.37-2.323-1-2.372l-.903.388a2.55 2.55 0 0 0-.806 1.758c-.355 7.68-1.112 16.232-3.902 21.395a10.563 10.563 0 0 1-4.837 4.18v4.55a11.385 11.385 0 0 0 7.804-6.6zm.064-29.785a2.338 2.338 0 0 0 2 1.613h.613L528.3.032h-8.32a1.615 1.615 0 0 0-.097 1.275zM666.61 25.154c.435.533 4.321.614 6.965-.726a2.387 2.387 0 0 0 1.403-1.258c1-1.936.194-4.324-2.644-7.422-3.273-4.195-7.143-5.18-11.9-3.082a.968.968 0 0 0-.532 1.275c.34.41.839.657 1.371.677 4.273-1.904 7.143-.387 10.013 4.663.806 2.679-.355 3.05-1.258 3.502-.863.4-1.807.593-2.757.564-.557.082-.998.511-1.096 1.065-.033.162.08.436.5.742h-.065zm147.531-1.13-1.031.307a2.97 2.97 0 0 0-1.032 2.13l-.565 4.002c-.306 2.017-.596 4.034-.886 6.05-.29 2.017-.597 3.889-.887 5.793a9.51 9.51 0 0 1-.178 1.613h3.548l2.063-17.99c-.032-1.081-.419-1.807-.967-1.904h-.065zm-5.45-10.567a7.309 7.309 0 0 0-.644-.84A158.361 158.361 0 0 0 784.345.033h-13.866a244.765 244.765 0 0 1 29.216 12.698c1.612 1 2.305 2.001 2.257 2.97a1.613 1.613 0 0 1-1.016 1.403 6.446 6.446 0 0 1-5.127-.58A226.18 226.18 0 0 0 751.308.032H736.99c.363.43.807.786 1.306 1.048 12.076 2.388 26.959 8.068 40.083 13.15l.468.145c9.351 3.614 17.446 6.696 22.121 7.664 2.074.183 4.16-.184 6.047-1.065a5.162 5.162 0 0 0 3.096-3.55 4.278 4.278 0 0 0-.694-3.081 8.808 8.808 0 0 0-.725-.887zm-269.265 27.3c-.822.355-.87.565-.387 1.613.255.84.96 1.463 1.822 1.614a5.35 5.35 0 0 0 2.258-.339l4.337-3.695.548-.92c0-.08-.097-.242-.613-.322-2.192-.5-3.386-2.663-4.498-4.631a10.47 10.47 0 0 0-3.467-4.163l-.854-.29a1 1 0 0 0-1 .274c-.226.178-.145.452 0 .92.436.985.976 1.921 1.613 2.791 1.531 2.243 3.37 5.034.241 7.148zM686.474.355c-1.85.772-3.85 1.12-5.853 1.016l-.306.791c.039.39.305.72.677.84l4.16.725c5.273-.855 8.062 1.356 8.981 3.534a3.229 3.229 0 0 1-1.37 4.356 6.558 6.558 0 0 1-4.257.178 3.969 3.969 0 0 0 1.419 1.758c4.595 2.663 9.061 2.663 11.464 1.436a2.871 2.871 0 0 0 1.838-2.162c.145-1.339-.774-2.791-2.677-4.292a27.807 27.807 0 0 1-8.384-8.438h-5.111c-.194.048-.371.161-.58.258zM529.85 5.389a2.937 2.937 0 0 0-1.032 2.13l-.564 3.985a275.23 275.23 0 0 0-.887 6.067c-.274 2.017-.597 3.888-.839 5.792a7.117 7.117 0 0 1-2.87 6.019l-.112.129a8.581 8.581 0 0 0-1.855 1.936c-1.048 2.582-.806 3.227-.71 3.437h.21c.36.037.724-.007 1.065-.13 4.708-3.017 7.142-6.114 7.513-9.777l2.129-17.974c0-1.098-.468-1.84-1.016-1.92l-1.032.306zm190.824-1.613c.854-.42 1.612-1.275 1.306-1.404C718.609.629 700.244.758 700.244.758c.378.508.877.912 1.451 1.178a88.122 88.122 0 0 0 17.962 2.13l1.016-.29zM682.798 43.87a15.289 15.289 0 0 0 1.741-12.666 7.243 7.243 0 0 0-3.756-4.276c-1.822-.694-4.24-.42-7.369.855l-.822.307c-1.29.661-1.774 1.613-1.613 2.372.167.508.602.88 1.13.968l4.288-1.097a4.35 4.35 0 0 1 3.225.597 7.78 7.78 0 0 1 1.773 5.534c-.903 4.566-2.193 5.39-.435 7.196l.21.274h1.612l.016-.064zm-4.144-8.939c-1.338-2.033-2.386-1.468-2.821-1.275a7.966 7.966 0 0 0-1.532 1.178 1.614 1.614 0 0 0-.355 1.727 2.208 2.208 0 0 0 2.08.694 10.04 10.04 0 0 0 1.5-.581c1.515-.775 1.354-1.259 1.128-1.743zm26.443-5.34a4.657 4.657 0 0 1-3.386 0c-.484-.243-.822-.29-1.032-.178-.21.113-.306.177-.532.904-1 2.533 0 3.404 1 3.84 3.837 1.194 6.546 1.355 8.255.516a4.712 4.712 0 0 0 2.241-4.098 27.977 27.977 0 0 0-2.676-10.02 2.323 2.323 0 0 0-1.08-1.323 7.54 7.54 0 0 0-1.613.08h-.306l-.855.081a52.237 52.237 0 0 1-9.884-.823l.097.404c.452 1.613 1.145 2.42 2.241 2.63l5.305 1.032a5.275 5.275 0 0 1 3.628 4.276 2.63 2.63 0 0 1-1.403 2.678zm-30.36-19.362 1.257 1.339c9.948 10.89 16.333 17.877 11.4 32.415h6.449a36.65 36.65 0 0 0 1.145-6.938C696.922 24.638 680.96 8.76 671.157.08h-7.772a61.042 61.042 0 0 1 11.351 10.1v.049zm-136.39-4.163c.273-2.34-.936-2.485-1.404-2.566a7.428 7.428 0 0 0-1.999.097 1.774 1.774 0 0 0-1.419 1.178c-.113.549.387 1.21 1.193 1.613a11.57 11.57 0 0 0 1.613.372c1.693.306 1.934-.242 2.015-.694zm3.401-2.646a7.812 7.812 0 0 1-2.241 5.373c-3.725 3.227-5.289 3.097-5.079 5.518-.113 1.08.355 1.161.597 1.194h.741c4.966-2.179 8.207-5.26 9.771-9.133a6.458 6.458 0 0 0-.177-5.486 5.84 5.84 0 0 0-.726-.855h-8.19l3.224 1.146a3.84 3.84 0 0 1 2.08 2.243zm8.965 33.076c.673.067 1.35-.08 1.935-.42a42.81 42.81 0 0 1 4.16-3.049 15.144 15.144 0 0 0 5.675-5.066c.339-1.017.29-1.404.21-1.533-.08-.129-.274-.242-1.242-.403-3.676-.759-5.836-3.227-8.062-5.809l-.757-.403a1.805 1.805 0 0 0-1.613.71 1.195 1.195 0 0 0-.274 1.274l3.547 4.84a2.874 2.874 0 0 1-.483 3.083 3.433 3.433 0 0 1-2.983 1.242 2.434 2.434 0 0 1-1.467-.71l-3.79-3.711-.838-.323a1.386 1.386 0 0 0-1.322.613 1.275 1.275 0 0 0-.097 1.323 35.253 35.253 0 0 0 5.353 7.132c.53.62 1.25 1.045 2.048 1.21zM534.83 26.171h.242c5.176-1.307 10.029-4.421 14.85-9.487 4.192-3.792 6.143-9.94 6.852-16.684h-5.11c-.952 8.116-4.935 14.44-17.076 20.895a3.567 3.567 0 0 0-1.274 3.743c.135.79.758 1.406 1.548 1.533h-.032zM573.463.032h-8.884a9.124 9.124 0 0 0 5.03 2.71 3.223 3.223 0 0 0 2.935-.757 3.228 3.228 0 0 0 .92-1.953zm299.9 37.788L863.158 26.43l-.516-.339-.483.178a2.81 2.81 0 0 0-.242 2.791 58.68 58.68 0 0 1 7.497 10.068c.823 1.54.71 3.41-.29 4.84h6.192a6.312 6.312 0 0 0-1.903-6.147h-.048zm88.004-22.847a7.816 7.816 0 0 1-2.403.807l-.322.274c.211.24.462.442.742.597a12.89 12.89 0 0 0 8.239-.645 3.356 3.356 0 0 0 2.193-2.76c0-1.758-1.984-3.904-5.466-5.953l-.613-.436-.145-.129-.113-.242c-.161-.306-.435-1.016-4.837-1.888h-.242c.177.727-.29 1.614-1.37 2.324a18.75 18.75 0 0 1-2.42 1.452c-.902.452-2.03.936-3.369 1.468l-.339.484a2.546 2.546 0 0 0 2.516.646c6.11-2.84 9.32-2.033 10.303-.355.983 1.678-.242 3.291-2.354 4.356zm15.543 16.135a6.703 6.703 0 0 1-4.257.162 3.92 3.92 0 0 0 1.403 1.742c4.595 2.679 9.062 2.679 11.464 1.452a2.84 2.84 0 0 0 1.838-2.226c.161-1.34-.774-2.792-2.676-4.292a28.31 28.31 0 0 1-9.481-10.278c-.452-.79-.774-.952-1.145-1.033a5.05 5.05 0 0 0-1.016 1.259 7.724 7.724 0 0 1-2.418 1.936c-1.85.772-3.85 1.12-5.853 1.016l-.323.791a1 1 0 0 0 .645.871l4.144.726c5.289-.871 8.062 1.356 8.997 3.518.8 1.586.22 3.522-1.322 4.405v-.049zM944.566 5.292l-.532.484c3.288.572 6.67.22 9.77-1.016 1.242-.678 1.532-1.178 1.613-1.436-.047-.4-.243-.77-.548-1.033A52.552 52.552 0 0 0 949.87.065h-6.224l1.048.37c1.532.646 2.273 1.372 2.306 2.276.032.903-.774 1.79-2.435 2.614v-.033zm-6.579-3.436a9.67 9.67 0 0 0-3.386 1.08c-.967.5-1.983 1.114-2.692 1.614-.323.274-.371.452-.323.533.049.08.484.5 1.613.484a12.892 12.892 0 0 0 4.16-1.178 5.966 5.966 0 0 0 1.838-1.34c.403-.596.322-.774.29-.806-.032-.033-.194-.34-1.5-.387zm-18.622 3.033c1.418-.871 2.902-1.727 4.45-2.485a37.408 37.408 0 0 1 5.917-2.372h-6.723a52.342 52.342 0 0 0-3.677 1.694 68.005 68.005 0 0 0-4.176 2.275c-.516.34-.774.694-.71.807.388.613 2.887.984 4.919.08zm73.75 35.158a2.275 2.275 0 0 0-1.081-1.323 6.8 6.8 0 0 0-1.612.08h-.29l-.855.081a52.125 52.125 0 0 1-9.884-.823l.097.404c.451 1.613 1.128 2.42 2.24 2.63l5.29 1.032a5.772 5.772 0 0 1 2.547 1.76h5.095a35.786 35.786 0 0 0-1.548-3.841zm-68.833-2.017a19.094 19.094 0 0 0-3.015-.258l.839 1.452a13.33 13.33 0 0 1 10.335 4.695h1.806c-2.838-3.775-6.24-5.76-9.965-5.889zm95.017 2.388a1.805 1.805 0 0 0-1.338.355 1.614 1.614 0 0 0-.694 1.29l-.338 1.872h3.74c.097-.548.194-1.097.307-1.613a1.855 1.855 0 0 0-1.677-1.904zm-60.109 2.275c.984-1.936.194-4.324-2.644-7.422-3.354-4.195-7.288-5.18-11.964-3.082a.968.968 0 0 0-.532 1.275c.33.41.827.653 1.354.661 4.273-1.887 7.16-.37 10.013 4.663.806 2.695-.355 3.066-1.241 3.518-.87.4-1.818.593-2.774.565a1.242 1.242 0 0 0-1.08 1.064h7.514a2.532 2.532 0 0 0 1.354-1.242zm-60.206-30.511h-.354a5.7 5.7 0 0 0 .435 5.389 313.043 313.043 0 0 1 17.043 26.332h5.788a194.118 194.118 0 0 0-21.977-30.801c-.387-.581-.66-.856-.935-.92zM577.64 35.287a24.084 24.084 0 0 0-7.578-8.39c-.395.003-.759.218-.951.565a2.615 2.615 0 0 0-.145 2.71l3.74 5.244a4.31 4.31 0 0 1-.918 4.583 4.707 4.707 0 0 1-4.128 1.871 3.45 3.45 0 0 1-1.983-.936l-4.354-4.195-.677-.5c-.451 0-1 .339-1.338.984-.339.646-.597 1.614 0 2.179l4.627 4.485h11.529c2.499-2.63 4.015-4.889 2.176-8.6zm373.65 4.211c.335-.166.556-.498.58-.87-.773-1.614-1.611-2.163-2.095-2.26a3.223 3.223 0 0 0-1.79.565c-.596.678-.919 1.194-.854 1.517.064.322.58.822 1.273 1.113a4.947 4.947 0 0 0 2.886-.065zm-27.716-6.84a30.034 30.034 0 0 0-4.402-.356l1.016 2c5.885.13 10.738 1.856 14.511 6.455.611 1.149 1.34 2.23 2.177 3.227h2.418c-3.82-7.342-9.093-11.117-15.72-11.327zm100.24-22.025c-.524.079-.976.41-1.209.887-.37.759 0 0-1.048 2.324-6.546 21.992-2.37 22.944-2.37 22.944a4.69 4.69 0 0 0 2.854 1.13 7.009 7.009 0 0 0 1.806-.13v-4.582a2.481 2.481 0 0 1-.758.08c-.806 0-2.144-.597-2.128-3.598a76.366 76.366 0 0 1 2.886-15.538l-.032-3.517zM835.764 3.71a3.664 3.664 0 0 1 1.306 2.824 2.081 2.081 0 0 1-1.048 1.323c-1.68.655-3.497.888-5.288.677a61.67 61.67 0 0 1-20.961-5.163c-2.306-1.162-4.563-2.259-6.772-3.34h-10.819c9.078 4.066 15.124 5.357 22.573 9.778.274.261.522.547.742.855 12.157 4.84 23.476 4.308 34.601-1.855a54.071 54.071 0 0 0 3.225-1.969c1.612-1.387 1.483-1.952 1.467-1.968-.016-.016-.58-.468-1.773-.613A36.55 36.55 0 0 1 839.762.032h-9.577l5.578 3.679zm-11.802 1.436a5.092 5.092 0 0 0 3.225-.258.92.92 0 0 0 .564-.726c0-.823-1.145-2-3.031-3.146L822.96.032h-9.432l10.432 5.115zm180.279 34.077c.414-.264.594-.777.435-1.242a1.258 1.258 0 0 0-1.048-.888l-5.53.258-.275.71.613.791 5.434.549.37-.178zm-400.69-1.936c-2.047-3.227-4.176-6.632-6.175-9.681l-.645-.452-.92.516a3.422 3.422 0 0 0-.757 3.13l8.062 13.118h4.676c-1.435-2.194-2.838-4.42-4.24-6.631zM512.63 11.956a1.243 1.243 0 0 0-.613-1.29v3.371c.194-.726.403-1.436.613-2.081zM908.916.032h-5.498a8.922 8.922 0 0 0-.66.84 9.425 9.425 0 0 0-1.29 2.403s-2.726 7.439 6.11 10.633c3.45 1.243 6.45.823 10.03.5 1.853-.16 3.224-.258 4.578-.306 2.564 0 5.176 0 7.756.21 10.012.387 17.623 2.936 28.942 15.392l1.241 1.34a74.583 74.583 0 0 1 10.303 12.908h5.805c-6.192-11.892-20.268-23.848-25.911-28.608a26.784 26.784 0 0 0-19.348-5.582l-20.203.726a6.885 6.885 0 0 1-5.208-3.615c-.887-1.92.193-2.92 1.709-5.017.478-.668 1.03-1.28 1.644-1.824zM891.18 5.615a2.922 2.922 0 0 1 0 3.534 3.062 3.062 0 0 1-3.224.984 6.448 6.448 0 0 1-2.693-1.404 81.664 81.664 0 0 0-8.594-8.697h-4.015a155.872 155.872 0 0 1 14.383 14.231 6.917 6.917 0 0 0 3.224 2.114 4.013 4.013 0 0 0 3.386-1.097c3.225-4.34 2.08-9.326-3.386-15.15l-.129-.098h-4.208a59.683 59.683 0 0 1 5.224 5.583h.032zm74.572-4.276h-.403a11.99 11.99 0 0 0 4.66 1.307c11.98-.758 32.15-1.162 42.083.92a2.871 2.871 0 0 1 2.305 2.468 2.614 2.614 0 0 1-1.74 2.42 6.816 6.816 0 0 1-2.92.485 155.567 155.567 0 0 0-33.859-1.485l-.097.517a2.29 2.29 0 0 0 2.451 1.29 213.67 213.67 0 0 1 36.391 2.647 7.283 7.283 0 0 0 3.676-.259 3.324 3.324 0 0 0 1.839-2.613c-.404-4.84-4.435-7.713-12.254-8.81-1.87 0-4.08-.145-6.45-.194h-19.526c-5.41.05-10.808.487-16.156 1.307zm45.824 14.618c-9.126-2.42-19.816-3.227-33.602-2.742l-.21.548a2.612 2.612 0 0 0 2.258 1.759c2.483.242 5.933.323 9.932.403 7.74.162 15.704.323 18.187 1.92a5.68 5.68 0 0 1 3.225 4.84 3.227 3.227 0 0 1-1.838 2.953c-.81.383-1.7.566-2.596.533l-17.413-.436h-.387l-.113.13a6.756 6.756 0 0 0 4.321 2.968 83.786 83.786 0 0 0 13.06 1.194h1.177a16.967 16.967 0 0 0 6.45-.726 3.92 3.92 0 0 0 1.612-1.613c1.387-4.421-1.08-10.165-4.063-11.73zm1.886 26.672c.434-1.784.378-3.651-.16-5.406a6.16 6.16 0 0 0-6.096-4.324l-12.367-.71-.467.097-.13.355c.29.768.913 1.362 1.694 1.613 3.419.142 6.815.617 10.142 1.42a4.387 4.387 0 0 1 3.063 3.018c.273.86-.04 1.798-.774 2.323a3.03 3.03 0 0 1-2 .387l-6.948.13a.969.969 0 0 0-.146.951c.18.615.59 1.135 1.145 1.452h12.077c.441-.333.777-.787.967-1.306zM911.48 20.7l.855 1.5c3.224-.951 7.288-1.806 9.335-.241a4.045 4.045 0 0 0 2.628-.468c1.226-.613 1.613-1.34 1.613-1.485l-.5-.177c-3.37-1.468-9.69-.904-13.93.871zm93.324 2.533c.854-.435 1.612-1.274 1.306-1.403-3.37-1.743-21.735-1.614-21.735-1.614.385.508.889.913 1.467 1.178a88.09 88.09 0 0 0 17.946 2.13l1.016-.29zm-80.022 20.524.29.177h2.612a21.13 21.13 0 0 0-3.66-1.468l.758 1.291zM611.596 5.712l-.468-.468-.483.371a5.586 5.586 0 0 0-1 5.034c7.272 8.874 14.27 21.766 20.477 33.286h6.046c-7.126-14.134-16.236-26.945-24.572-38.223zm54.498 37.61-.452.613h2.097c-.613-.597-1.21-.822-1.645-.613zm-21.735-12.537 2.983 5.212a17.506 17.506 0 0 1 5.676 7.938h4.837a5.923 5.923 0 0 0-.403-.774 46.514 46.514 0 0 0-13.093-12.376zm162.591-5.453-1.015.323a2.647 2.647 0 0 0-.984 1.758 83.292 83.292 0 0 1-3.225 16.522h3.225a92.205 92.205 0 0 0 2.95-16.134c.081-1.404-.273-2.372-.95-2.47zm12.206 9.68h.822c4.982-2.177 8.223-5.26 9.787-9.132a6.458 6.458 0 0 0-.177-5.485c-1-1.614-3.112-2.663-6.45-3.389l-.87-.21a2.788 2.788 0 0 0-2.854 1 1.243 1.243 0 0 0 .258 1.388l4.144 1.485a3.984 3.984 0 0 1 2.144 2.243 7.893 7.893 0 0 1-2.241 5.389c-3.74 3.162-5.353 3.114-5.16 5.502-.096 1.113.355 1.194.597 1.226v-.016zm14.947 1.211c5.191-4.711 6.949-12.376 7.142-20.975l-5.191 1.177c-.242 8.842-2.645 14.99-12.9 21.46l-.918-.581.741.694a75.482 75.482 0 0 1-4.256 2.436 3.535 3.535 0 0 0-1.323 3.501h6.66a36.394 36.394 0 0 0 10.045-7.696v-.016zM579.22 8.423l-.532-.291-.452.21a2.745 2.745 0 0 0 0 2.727 56.815 56.815 0 0 1 8.062 9.148 4.52 4.52 0 0 1 0 5.002 3.095 3.095 0 0 1-2.95 1.404 3.869 3.869 0 0 1-2.226-1.227l-6.659-5.308a1.387 1.387 0 0 0-1.064.694 2.325 2.325 0 0 0 0 2.678l7.949 7.535a5.416 5.416 0 0 0 2.676 1.356 4.157 4.157 0 0 0 2.37-.388 13.935 13.935 0 0 0 5.063-4.84 6.344 6.344 0 0 0-1.467-8.52l-10.77-10.18zm238.436 15.876c-.096.549.387 1.194 1.194 1.694a11.57 11.57 0 0 0 1.612.372c1.725.225 1.967-.323 2.064-.775.274-2.34-.935-2.5-1.42-2.565a8.056 8.056 0 0 0-1.998 0 1.87 1.87 0 0 0-1.452 1.274zM590.7 34.9a1.612 1.612 0 0 0-1.435.55c-.359.749-.245 1.64.29 2.275a84.082 84.082 0 0 1 5.401 6.211h3.886c-1.988-2.613-4.283-5.42-6.885-8.422a2.676 2.676 0 0 0-1.257-.613zm-7.74 3.228a3.859 3.859 0 0 0 .162 3.388l1.934 2.388h3.999a62.804 62.804 0 0 0-6.095-5.744v-.032zm14.802-23.105c4.047-2.84 5.966-8.988 4.66-11.989-.774-1-1.597-2-2.467-3h-3.225a8.068 8.068 0 0 1 1.773 2.597 5.715 5.715 0 0 1-.741 5.776 3.707 3.707 0 0 1-3.515 1.388 5.303 5.303 0 0 1-2.386-1.049L580.574.032h-2.58a7.392 7.392 0 0 0 1.42 3.227 73.831 73.831 0 0 0 9.496 8.471l.951.662a14.96 14.96 0 0 0 5.498 3.05 4.173 4.173 0 0 0 2.403-.42zm7.852 1.065-.451.096a3.229 3.229 0 0 0-.516 2.872 246.264 246.264 0 0 1 16.623 24.88h4.58c-5.096-9.551-11.884-18.2-20.042-27.655l-.194-.193zm6.853 27.848h4.192a174.454 174.454 0 0 0-16.285-23.411l-.371.306a2.55 2.55 0 0 0-.822 2.017 279.215 279.215 0 0 0 13.286 21.088zM876.266 22.96l1.016.42c1 .225 2.225 0 2.096-.259-1.306-3.469-15.705-14.989-15.705-14.989a3.504 3.504 0 0 0 .226 1.84 81.457 81.457 0 0 0 12.367 12.94v.048zm18.123-.645-.5.37a5.65 5.65 0 0 0-1.064 5.019c3.95 5.158 7.518 10.6 10.674 16.28h5.708c-4.692-7.551-9.675-14.635-14.35-21.201l-.468-.468zm-5.692 10.762-.435.096a3.229 3.229 0 0 0-.58 2.856c1.886 2.646 3.756 5.276 5.578 7.955h4.225c-2.645-3.518-5.515-7.067-8.578-10.714l-.21-.193zm-41.599 2.936a4.418 4.418 0 0 1-2.709-1.888c-.225-.468-.451-.677-.693-.71-.242-.032-.355 0-1.016.42-2.467 1.484-2.225 2.727-1.741 3.614 2.29 3.082 4.337 4.712 6.24 4.986a5.529 5.529 0 0 0 4.515-2.05 29.504 29.504 0 0 0 4.466-9.454 2.18 2.18 0 0 0 0-1.614 6.046 6.046 0 0 0-1.387-.839l-.258-.129-.677-.516a47.863 47.863 0 0 1-7.336-6.131l-.194.387c-.693 1.516-.677 2.55 0 3.324l3.531 3.759a4.746 4.746 0 0 1 0 5.405 3.03 3.03 0 0 1-2.74 1.388v.048zm87.73-11.665c-.356.37-.356.597-.356.629 0 .032.258.661 1.968 1.371.599.245 1.262.285 1.886.113.468-.193.339-.806.145-1.161-.467-1.033-1.757-1.695-3.644-1v.048zm-74.283 8.922-1 .355-.29 1.178 4.257 5.163.532.194c.65.17 1.338-.08 1.725-.63a1.388 1.388 0 0 0 0-1.613l-5.224-4.647zm80.36-5.357.356.791a4.254 4.254 0 0 0 2.45-.355 2.968 2.968 0 0 0 1.71-2.178 3.744 3.744 0 0 0-1.484-3.227c-5.37-3.985-9.545-3.227-14.157-.952l-.612.306c-.532.468-.58.872-.516.985.064.113.903.71 2.499 0 2.564-1.291 5.611-2.84 10.174.42 1.225.903 1.37 1.71 1.338 2.258-.145.871-.467 1.29-1.757 1.952zm-25.974-2.694 1.612 2.743c8.271-.194 15.205 1.936 20.864 8.067 2.693 4.373 5.32 6.793 7.74 7.164h.548l-.468-1.032c-6.11-11.295-14.157-16.894-24.073-16.765a39.943 39.943 0 0 0-6.288-.177h.065zm-57.643 12.908a1.45 1.45 0 0 0-1.16.63 2.454 2.454 0 0 0-.307 2.774L858.046 44h5.434l-6.192-5.873zM871.3 8.617c5.804 5.178 11.802 10.535 12.48 13.407a5.876 5.876 0 0 1-1.29 5.906 3.949 3.949 0 0 1-3.693 1.161 5.416 5.416 0 0 1-2.386-1.274l-13.076-11.763-.29-.258h-.178a6.328 6.328 0 0 0 1.032 5.196 73.715 73.715 0 0 0 9.094 9.584l.919.758a15.768 15.768 0 0 0 5.45 3.582 4.415 4.415 0 0 0 2.515-.177c4.466-2.614 7.014-8.794 5.934-11.989-4.838-7.438-11.835-14.683-21.848-22.589h-2.709c.025.636.264 1.244.677 1.727 1.71 1.662 4.29 3.985 7.304 6.664l.065.064zm-19.687 7.615a6.175 6.175 0 0 1-3.515-2.227c-.22.71-.22 1.47 0 2.178 1.903 4.663 5.466 7.132 8.19 7.487a3.223 3.223 0 0 0 2.935-.758c1-.985 1.226-2.663.694-4.84a26.51 26.51 0 0 1-1.29-10.166 8.707 8.707 0 0 1-3.177 2.307 4.844 4.844 0 0 1 0 3.227 3.79 3.79 0 0 1-3.902 2.727l.065.065zm31.409 21.475a2.599 2.599 0 0 0-.855 2.001c.774 1.42 1.613 2.824 2.37 4.227h3.822a501.785 501.785 0 0 0-4.95-6.534l-.387.306zm-45.469 2.033-.758-.403a1.838 1.838 0 0 0-1.612.694c-.337.338-.45.84-.29 1.29l1.886 2.614h5.111a23.483 23.483 0 0 1-4.337-4.195zM1223.95 43.935h-5.66a3.226 3.226 0 0 0-1.322-1.355l-6.062-1.952a1.259 1.259 0 0 1-.63-1.178 1.614 1.614 0 0 1 .855-1.468l.871-.097c3.499.839 6.836 1.613 10.27.177.855-.42 1.081-.435 1.258-.37.178.064.436.322.839 1.338a10.35 10.35 0 0 1-.42 4.905zm-155.932-4.485-.468-.436c-.44.038-.839.276-1.08.646a2.793 2.793 0 0 0-.532 2.791l.822 1.484h4.353a25.171 25.171 0 0 0-3.095-4.485zm217.202 4.485a12.779 12.779 0 0 0-3.612-5.195c-3.58-2.775-14.092-6.454-28.845-9.988a3.094 3.094 0 0 0-1.403.21c-.467.238-.76.719-.758 1.243.229.818.894 1.44 1.725 1.613a89.347 89.347 0 0 1 24.557 8.261 4.147 4.147 0 0 1 2.402 3.582v.258l5.934.016zm5.707-3.969-1.322 3.97h2.322c.258-1.195.484-2.437.693-3.744 0-.887-.21-1.371-.322-1.387-.113-.017-.887.322-1.338 1.161h-.033zm-43.534-4.114a4.275 4.275 0 0 0 2.355 2.598l20.412 5.485h3.692l.226-.29-.193-.532a73.968 73.968 0 0 0-26.524-7.261h.032zM1140.187 2.678c3.225-.952 7.288-1.807 9.336-.242a3.948 3.948 0 0 0 2.628-.468c1.225-.613 1.612-1.339 1.612-1.468l-.483-.193a8.65 8.65 0 0 0-.774-.275h-9.417c-1.282.273-2.54.656-3.756 1.146l.854 1.5zm22.493 2.082c-.371.37-.371.597-.371.645 0 .049.258.646 1.983 1.356a2.884 2.884 0 0 0 1.87.112c.484-.193.339-.806.162-1.161-.42-.952-1.758-1.63-3.644-.952zm-3.822-1.033c2.564-1.29 5.628-2.823 10.174.436a2.485 2.485 0 0 1 1.355 2.21c0 .872-.323 1.291-1.613 1.953l.339.79a4.35 4.35 0 0 0 2.45-.355 3.033 3.033 0 0 0 1.597-2.081 3.825 3.825 0 0 0-1.5-3.227c-5.352-3.985-9.545-3.227-14.156-.936l-.613.29c-.516.468-.564.872-.5.985.065.113.887.71 2.484-.049l-.017-.016zm-16.736 2.307 1.612 2.727c8.256-.177 15.205 1.953 20.848 8.068 2.693 4.372 5.337 6.793 7.74 7.164h.564l-.532-.985c-6.111-11.294-14.157-16.893-24.073-16.764a40.023 40.023 0 0 0-6.159-.21zm37.6 13.07c-.757-1.614-1.612-2.162-2.096-2.243a3.046 3.046 0 0 0-1.773.549c-.597.677-.92 1.194-.855 1.516.065.323.58.823 1.274 1.13a5.22 5.22 0 0 0 2.87 0c.366-.174.594-.548.58-.952zm119.074 17.635c-.242 0-.903.34-1.355 1.162l-2.015 6.034h2.564c.435-1.807.806-3.743 1.144-5.792.049-.904-.21-1.371-.338-1.404zm-130.038-3.404c-4.563-4.357-13.27-9.44-16.913-10.391l.741 1.29a98.487 98.487 0 0 1 15.14 11.085c1.79 1.21 1.58-1.516 1.032-1.984zm138.422-3.453c-.56.046-1.066.35-1.37.823-.452.758-.887 1.613-1.29 2.307l-3.644 10.923h2.87a83.33 83.33 0 0 1 4.047-12.633c.129-.468.113-.84-.613-1.42zm-276.714 7.842-.774-.694h-.452a6.457 6.457 0 0 0-1.08 4.163c.161.92.306 1.807.42 2.678h3.724a74.483 74.483 0 0 0-1.838-6.147zm-5.386 2.807c-.45.09-.79.462-.838.92-.08.597-.161 1.145-.242 1.71v.774h1.757c0-.58 0-1.177.13-1.758-.097-1.227-.533-1.63-.807-1.646zm2.677-32.012L1025 27.22c0 .678.387.743.596.759.21.016.742-.161.968-.855 1.935-4.712 2.837-10.81 2.773-18.62-.113-.855-.403-1.275-.532-1.29-.13-.017-.774.451-1.048 1.306zm15.817 23.96a1.951 1.951 0 0 0-.66-.612c-.082 0-.323.29-.55 1.08a12.917 12.917 0 0 0 .436 5.696l.097.194c.498 1.629.705 3.333.613 5.034h2.708a17.096 17.096 0 0 0-2.644-11.391zm-6.127 8.423c0-.661 1.242-1.42 1.467-.968.339.742.774 1.371 1.08 1.242 1.113.307 0-4.679 0-4.679-.399-.478-.989-.756-1.612-.758a4.593 4.593 0 0 0-2.305.532c-1.032.226-1.71.759-1.452 2.501.016 1.737.21 3.467.581 5.163h2.741a12.141 12.141 0 0 1-.5-3.033zM1239.51 3.97a3.227 3.227 0 0 1-1.822 3.017 5.43 5.43 0 0 1-2.596.468l-17.478-.79h-.387l-.113.129a7.24 7.24 0 0 0 4.386 3.227 84.335 84.335 0 0 0 13.14 1.5h1.194a16.21 16.21 0 0 0 6.45-.613 3.742 3.742 0 0 0 1.612-1.613 12.221 12.221 0 0 0-1.403-9.262h-4.757a5.875 5.875 0 0 1 1.774 3.937zm11.287 39.16-1.613-.452a1.356 1.356 0 0 0-.29 1.065v.193h4.644l-2.741-.806zm-26.008-28.914h-.613l-.225.42a3 3 0 0 0 1.806 2.161c4.22.56 8.377 1.522 12.415 2.873a4.969 4.969 0 0 1 3.224 4.033 2.695 2.695 0 0 1-1.418 2.76 4.06 4.06 0 0 1-2.596.241l-8.707-.613c-.327.276-.476.71-.387 1.13a2.565 2.565 0 0 0 1.725 2.178l11.287 1.613a5.833 5.833 0 0 0 3.031-.403 3.742 3.742 0 0 0 1.612-1.614 12.383 12.383 0 0 0 .887-6.615 7.112 7.112 0 0 0-6.772-5.986l-15.269-2.178zm10.206 9.455a1.42 1.42 0 0 0 .79-1.468 1.5 1.5 0 0 0-1.128-1.227l-6.998-.29-.467.839.612 1.017 6.675 1.306.516-.177zm12.722-9.875c-.04.76.27 1.497.838 2.001a334.563 334.563 0 0 0 39.342 11.295l.758-.097.37-.565c0-.355-.273-.71-.725-.984a200.683 200.683 0 0 0-40.519-12.118l-.064.468zm64.978 12.908c-.242 0-.87.404-1.225 1.275l-3.676 15.957h2.37a54.344 54.344 0 0 0 2.967-15.812c0-.903-.29-1.355-.5-1.371l.064-.049zm-62.479-19.7h-.29l-.274.338a3.42 3.42 0 0 0 1.612 2.501c14.028 3.566 27.862 7.326 42.696 14.135a4.404 4.404 0 0 1 2.95 3.727 4.582 4.582 0 0 1-2.66 4.098 5.527 5.527 0 0 1-3.805.371c-9.078-2.033-18.22-4.953-27.072-7.825-3.854-1.227-7.9-2.55-11.56-3.68h-.823l-.322.937a3.63 3.63 0 0 0 1.612 2.84l28.845 9.551a30.052 30.052 0 0 0 12.69 1.985 23.466 23.466 0 0 0 4.369-1.614c2.644-1.306 4.112-2.985 4.418-4.84.306-1.856-.839-4.195-3.225-6.454-14.801-8.761-30.28-12.714-49.16-16.07zm-16.446 34.222-3.983-.646-.564.113a1.34 1.34 0 0 0-.742 1.291 1.42 1.42 0 0 0 1.177 1.113l4.015.63.92-.113c.467-.242.45-.84.45-1.081a1.726 1.726 0 0 0-1.273-1.307zm-48.661-2c-.774-.856-1.613-1.195-2.096-.969l-.613.807c-.14.806.072 1.634.58 2.275l1.613 2.597h3.611l-3.095-4.71zm-81.699-35.143 1.016.323c.951.145 2.112-.13 1.967-.404a17.453 17.453 0 0 0-3.805-3.969h-4.305c1.515 1.323 3.273 2.663 5.127 4.05zm69.429 32.786c-.356.853-.626 1.74-.807 2.646-.2.715.113 1.474.758 1.84a2.578 2.578 0 0 0 2.66.161l.42-.21h.097l3.966-8.164a2.68 2.68 0 0 0-.274-2.275 2.597 2.597 0 0 0-1.225-1.178c-4.354-.387-8.756-3.098-14.334-7.1a29.798 29.798 0 0 0-15.286-4.84l.871 1.533c7.884 2.066 14.673 4.566 22.09 12.279a5.585 5.585 0 0 1 1.37 4.598l-.306.71zM1092.59 21.46l.532.146c.634.1 1.267-.185 1.613-.726a1.34 1.34 0 0 0-.097-1.614l-5.402-4.082-.935.403-.177 1.146 4.466 4.727zM1132.045.032h-4.644c.097.176.216.339.355.484 9.126 12.424 18.413 25.945 26.604 43.42h4.837a92.81 92.81 0 0 0-5.095-11.892A182.7 182.7 0 0 0 1132.045.032zm-47.968 9.681a6.449 6.449 0 0 0-1.387-.855l-.274-.129-.726-.403a46.944 46.944 0 0 1-7.336-6.132l-.193.388c-.71 1.613-.694 2.549 0 3.323l3.547 3.695a4.843 4.843 0 0 1 .08 5.422 3.03 3.03 0 0 1-2.821 1.355 4.176 4.176 0 0 1-2.709-1.872c-.226-.451-.467-.677-.693-.71-.226-.032-.371 0-1.032.42-2.467 1.484-2.225 2.743-1.741 3.614 2.29 3.066 4.337 4.68 6.256 5.034a5.48 5.48 0 0 0 4.498-1.968 29.165 29.165 0 0 0 4.466-9.455c.26-.55.266-1.188.016-1.743l.049.016zm-6.772 22.283a1.612 1.612 0 0 0-1.451.613 1.308 1.308 0 0 0 .21 1.533l2.773 2.726.806.404c.435.004.84-.223 1.064-.597a1.501 1.501 0 0 0-.161-1.743l-2.71-2.743-.531-.193zm163.93 4.501a27.7 27.7 0 0 0-11.594-2.485.952.952 0 0 0-.387.969 2.84 2.84 0 0 0 1.613 2.242l6.45 2.13a4.534 4.534 0 0 1 2.385 4.13v.42h5.58c.096-3.162-.372-5.566-4.048-7.406zm-209.415-5.405a83.407 83.407 0 0 0 3.644-23.299c0-1.404-.37-2.323-1-2.372l-.903.388a2.55 2.55 0 0 0-.806 1.758c-.355 7.68-1.112 16.232-3.902 21.395a10.563 10.563 0 0 1-4.837 4.18v4.55a11.385 11.385 0 0 0 7.804-6.6zm.064-29.785a2.338 2.338 0 0 0 2 1.613h.613L1040.3.032h-8.32a1.615 1.615 0 0 0-.097 1.275zm146.726 23.847c.435.533 4.321.614 6.965-.726a2.387 2.387 0 0 0 1.403-1.258c1-1.936.194-4.324-2.644-7.422-3.273-4.195-7.143-5.18-11.9-3.082a.968.968 0 0 0-.532 1.275c.34.41.839.657 1.371.677 4.273-1.904 7.143-.387 10.013 4.663.806 2.679-.355 3.05-1.258 3.502-.863.4-1.807.593-2.757.564-.557.082-.998.511-1.096 1.065-.033.162.08.436.5.742h-.065zm147.531-1.13-1.031.307a2.97 2.97 0 0 0-1.032 2.13l-.565 4.002c-.306 2.017-.596 4.034-.886 6.05-.29 2.017-.597 3.889-.887 5.793a9.51 9.51 0 0 1-.178 1.613h3.548l2.063-17.99c-.032-1.081-.419-1.807-.967-1.904h-.065zm-5.45-10.567a7.309 7.309 0 0 0-.644-.84A158.361 158.361 0 0 0 1296.345.033h-13.866a244.765 244.765 0 0 1 29.216 12.698c1.612 1 2.305 2.001 2.257 2.97a1.613 1.613 0 0 1-1.016 1.403 6.446 6.446 0 0 1-5.127-.58 226.18 226.18 0 0 0-44.501-16.49h-14.318c.363.43.807.786 1.306 1.048 12.076 2.388 26.959 8.068 40.083 13.15l.468.145c9.351 3.614 17.446 6.696 22.121 7.664 2.074.183 4.16-.184 6.047-1.065a5.162 5.162 0 0 0 3.096-3.55 4.278 4.278 0 0 0-.694-3.081 8.808 8.808 0 0 0-.725-.887zm-269.265 27.3c-.822.355-.87.565-.387 1.613.255.84.96 1.463 1.822 1.614a5.35 5.35 0 0 0 2.258-.339l4.337-3.695.548-.92c0-.08-.097-.242-.613-.322-2.192-.5-3.386-2.663-4.498-4.631a10.47 10.47 0 0 0-3.467-4.163l-.854-.29a1 1 0 0 0-1 .274c-.226.178-.145.452 0 .92.436.985.976 1.921 1.613 2.791 1.531 2.243 3.37 5.034.241 7.148zM1198.474.355c-1.85.772-3.85 1.12-5.853 1.016l-.306.791c.039.39.305.72.677.84l4.16.725c5.273-.855 8.062 1.356 8.981 3.534a3.229 3.229 0 0 1-1.37 4.356 6.558 6.558 0 0 1-4.257.178 3.969 3.969 0 0 0 1.419 1.758c4.595 2.663 9.061 2.663 11.464 1.436a2.871 2.871 0 0 0 1.838-2.162c.145-1.339-.774-2.791-2.677-4.292a27.807 27.807 0 0 1-8.384-8.438h-5.111c-.194.048-.371.161-.58.258zM1041.85 5.389a2.937 2.937 0 0 0-1.032 2.13l-.564 3.985a275.23 275.23 0 0 0-.887 6.067c-.274 2.017-.597 3.888-.839 5.792a7.117 7.117 0 0 1-2.87 6.019l-.112.129a8.581 8.581 0 0 0-1.855 1.936c-1.048 2.582-.806 3.227-.71 3.437h.21c.36.037.724-.007 1.065-.13 4.708-3.017 7.142-6.114 7.513-9.777l2.129-17.974c0-1.098-.468-1.84-1.016-1.92l-1.032.306zm190.824-1.613c.854-.42 1.612-1.275 1.306-1.404-3.37-1.743-21.735-1.614-21.735-1.614.378.508.877.912 1.451 1.178a88.122 88.122 0 0 0 17.962 2.13l1.016-.29zm-37.875 40.095a15.289 15.289 0 0 0 1.741-12.666 7.243 7.243 0 0 0-3.756-4.276c-1.822-.694-4.24-.42-7.369.855l-.822.307c-1.29.661-1.774 1.613-1.613 2.372.167.508.602.88 1.13.968l4.288-1.097a4.35 4.35 0 0 1 3.225.597 7.78 7.78 0 0 1 1.773 5.534c-.903 4.566-2.193 5.39-.435 7.196l.21.274h1.612l.016-.064zm-4.144-8.939c-1.338-2.033-2.386-1.468-2.821-1.275a7.966 7.966 0 0 0-1.532 1.178 1.614 1.614 0 0 0-.355 1.727 2.208 2.208 0 0 0 2.08.694 10.04 10.04 0 0 0 1.5-.581c1.515-.775 1.354-1.259 1.128-1.743zm26.443-5.34a4.657 4.657 0 0 1-3.386 0c-.484-.243-.822-.29-1.032-.178-.21.113-.306.177-.532.904-1 2.533 0 3.404 1 3.84 3.837 1.194 6.546 1.355 8.255.516a4.712 4.712 0 0 0 2.241-4.098 27.977 27.977 0 0 0-2.676-10.02 2.323 2.323 0 0 0-1.08-1.323 7.54 7.54 0 0 0-1.613.08h-.306l-.855.081a52.237 52.237 0 0 1-9.884-.823l.097.404c.452 1.613 1.145 2.42 2.241 2.63l5.305 1.032a5.275 5.275 0 0 1 3.628 4.276 2.63 2.63 0 0 1-1.403 2.678zm-30.36-19.362 1.257 1.339c9.948 10.89 16.333 17.877 11.4 32.415h6.449a36.65 36.65 0 0 0 1.145-6.938c1.934-12.408-14.028-28.285-23.831-36.965h-7.772a61.042 61.042 0 0 1 11.351 10.1v.049zm-136.39-4.163c.273-2.34-.936-2.485-1.404-2.566a7.428 7.428 0 0 0-1.999.097 1.774 1.774 0 0 0-1.419 1.178c-.113.549.387 1.21 1.193 1.613a11.57 11.57 0 0 0 1.613.372c1.693.306 1.934-.242 2.015-.694zm3.401-2.646a7.812 7.812 0 0 1-2.241 5.373c-3.725 3.227-5.289 3.097-5.079 5.518-.113 1.08.355 1.161.597 1.194h.741c4.966-2.179 8.207-5.26 9.771-9.133a6.458 6.458 0 0 0-.177-5.486 5.84 5.84 0 0 0-.726-.855h-8.19l3.224 1.146a3.84 3.84 0 0 1 2.08 2.243zm8.965 33.076c.673.067 1.35-.08 1.935-.42a42.81 42.81 0 0 1 4.16-3.049 15.144 15.144 0 0 0 5.675-5.066c.339-1.017.29-1.404.21-1.533-.08-.129-.274-.242-1.242-.403-3.676-.759-5.836-3.227-8.062-5.809l-.757-.403a1.805 1.805 0 0 0-1.613.71 1.195 1.195 0 0 0-.274 1.274l3.547 4.84a2.874 2.874 0 0 1-.483 3.083 3.433 3.433 0 0 1-2.983 1.242 2.434 2.434 0 0 1-1.467-.71l-3.79-3.711-.838-.323a1.386 1.386 0 0 0-1.322.613 1.275 1.275 0 0 0-.097 1.323 35.253 35.253 0 0 0 5.353 7.132c.53.62 1.25 1.045 2.048 1.21zm-15.882-10.326h.242c5.176-1.307 10.029-4.421 14.85-9.487 4.192-3.792 6.143-9.94 6.852-16.684h-5.11c-.952 8.116-4.935 14.44-17.076 20.895a3.567 3.567 0 0 0-1.274 3.743c.135.79.758 1.406 1.548 1.533h-.032zM1085.463.032h-8.884a9.124 9.124 0 0 0 5.03 2.71 3.223 3.223 0 0 0 2.935-.757 3.228 3.228 0 0 0 .92-1.953zm299.9 37.788-10.206-11.391-.516-.339-.483.178a2.81 2.81 0 0 0-.242 2.791 58.68 58.68 0 0 1 7.497 10.068c.823 1.54.71 3.41-.29 4.84h6.192a6.312 6.312 0 0 0-1.903-6.147h-.048zm88.004-22.847a7.816 7.816 0 0 1-2.403.807l-.322.274c.211.24.462.442.742.597a12.89 12.89 0 0 0 8.239-.645 3.356 3.356 0 0 0 2.193-2.76c0-1.758-1.984-3.904-5.466-5.953l-.613-.436-.145-.129-.113-.242c-.161-.306-.435-1.016-4.837-1.888h-.242c.177.727-.29 1.614-1.37 2.324a18.75 18.75 0 0 1-2.42 1.452c-.902.452-2.03.936-3.369 1.468l-.339.484a2.546 2.546 0 0 0 2.516.646c6.11-2.84 9.32-2.033 10.303-.355.983 1.678-.242 3.291-2.354 4.356zm15.543 16.135a6.703 6.703 0 0 1-4.257.162 3.92 3.92 0 0 0 1.403 1.742c4.595 2.679 9.062 2.679 11.464 1.452a2.84 2.84 0 0 0 1.838-2.226c.161-1.34-.774-2.792-2.676-4.292a28.31 28.31 0 0 1-9.481-10.278c-.452-.79-.774-.952-1.145-1.033a5.05 5.05 0 0 0-1.016 1.259 7.724 7.724 0 0 1-2.418 1.936c-1.85.772-3.85 1.12-5.853 1.016l-.323.791a1 1 0 0 0 .645.871l4.144.726c5.289-.871 8.062 1.356 8.997 3.518.8 1.586.22 3.522-1.322 4.405v-.049zm-32.344-25.816-.532.484c3.288.572 6.67.22 9.77-1.016 1.242-.678 1.532-1.178 1.613-1.436-.047-.4-.243-.77-.548-1.033a52.552 52.552 0 0 0-4.998-2.226h-6.224l1.048.37c1.532.646 2.273 1.372 2.306 2.276.032.903-.774 1.79-2.435 2.614v-.033zm-6.579-3.436a9.67 9.67 0 0 0-3.386 1.08c-.967.5-1.983 1.114-2.692 1.614-.323.274-.371.452-.323.533.049.08.484.5 1.613.484a12.892 12.892 0 0 0 4.16-1.178 5.966 5.966 0 0 0 1.838-1.34c.403-.596.322-.774.29-.806-.032-.033-.194-.34-1.5-.387zm-18.622 3.033c1.418-.871 2.902-1.727 4.45-2.485a37.408 37.408 0 0 1 5.917-2.372h-6.723a52.342 52.342 0 0 0-3.677 1.694 68.005 68.005 0 0 0-4.176 2.275c-.516.34-.774.694-.71.807.388.613 2.887.984 4.919.08zm73.75 35.158a2.275 2.275 0 0 0-1.081-1.323 6.8 6.8 0 0 0-1.612.08h-.29l-.855.081a52.125 52.125 0 0 1-9.884-.823l.097.404c.451 1.613 1.128 2.42 2.24 2.63l5.29 1.032a5.772 5.772 0 0 1 2.547 1.76h5.095a35.786 35.786 0 0 0-1.548-3.841zm-68.833-2.017a19.094 19.094 0 0 0-3.015-.258l.839 1.452a13.33 13.33 0 0 1 10.335 4.695h1.806c-2.838-3.775-6.24-5.76-9.965-5.889zm95.017 2.388a1.805 1.805 0 0 0-1.338.355 1.614 1.614 0 0 0-.694 1.29l-.338 1.872h3.74c.097-.548.194-1.097.307-1.613a1.855 1.855 0 0 0-1.677-1.904zm-60.109 2.275c.984-1.936.194-4.324-2.644-7.422-3.354-4.195-7.288-5.18-11.964-3.082a.968.968 0 0 0-.532 1.275c.33.41.827.653 1.354.661 4.273-1.887 7.16-.37 10.013 4.663.806 2.695-.355 3.066-1.241 3.518-.87.4-1.818.593-2.774.565a1.242 1.242 0 0 0-1.08 1.064h7.514a2.532 2.532 0 0 0 1.354-1.242zm-60.206-30.511h-.354a5.7 5.7 0 0 0 .435 5.389 313.043 313.043 0 0 1 17.043 26.332h5.788a194.118 194.118 0 0 0-21.977-30.801c-.387-.581-.66-.856-.935-.92zM1089.64 35.287a24.084 24.084 0 0 0-7.578-8.39c-.395.003-.759.218-.951.565a2.615 2.615 0 0 0-.145 2.71l3.74 5.244a4.31 4.31 0 0 1-.918 4.583 4.707 4.707 0 0 1-4.128 1.871 3.45 3.45 0 0 1-1.983-.936l-4.354-4.195-.677-.5c-.451 0-1 .339-1.338.984-.339.646-.597 1.614 0 2.179l4.627 4.485h11.529c2.499-2.63 4.015-4.889 2.176-8.6zm373.65 4.211c.335-.166.556-.498.58-.87-.773-1.614-1.611-2.163-2.095-2.26a3.223 3.223 0 0 0-1.79.565c-.596.678-.919 1.194-.854 1.517.064.322.58.822 1.273 1.113a4.947 4.947 0 0 0 2.886-.065zm-27.716-6.84a30.034 30.034 0 0 0-4.402-.356l1.016 2c5.885.13 10.738 1.856 14.511 6.455.611 1.149 1.34 2.23 2.177 3.227h2.418c-3.82-7.342-9.093-11.117-15.72-11.327zm100.24-22.025c-.524.079-.976.41-1.209.887-.37.759 0 0-1.048 2.324-6.546 21.992-2.37 22.944-2.37 22.944a4.69 4.69 0 0 0 2.854 1.13 7.009 7.009 0 0 0 1.806-.13v-4.582a2.481 2.481 0 0 1-.758.08c-.806 0-2.144-.597-2.128-3.598a76.366 76.366 0 0 1 2.886-15.538l-.032-3.517zm-188.05-6.922a3.664 3.664 0 0 1 1.306 2.824 2.081 2.081 0 0 1-1.048 1.323c-1.68.655-3.497.888-5.288.677a61.67 61.67 0 0 1-20.961-5.163c-2.306-1.162-4.563-2.259-6.772-3.34h-10.819c9.078 4.066 15.124 5.357 22.573 9.778.274.261.522.547.742.855 12.157 4.84 23.476 4.308 34.601-1.855a54.071 54.071 0 0 0 3.225-1.969c1.612-1.387 1.483-1.952 1.467-1.968-.016-.016-.58-.468-1.773-.613a36.55 36.55 0 0 1-13.254-4.228h-9.577l5.578 3.679zm-11.802 1.436a5.092 5.092 0 0 0 3.225-.258.92.92 0 0 0 .564-.726c0-.823-1.145-2-3.031-3.146l-1.758-.985h-9.432l10.432 5.115zm180.279 34.077c.414-.264.594-.777.435-1.242a1.258 1.258 0 0 0-1.048-.888l-5.53.258-.275.71.613.791 5.434.549.37-.178zm-400.69-1.936c-2.047-3.227-4.176-6.632-6.175-9.681l-.645-.452-.92.516a3.422 3.422 0 0 0-.757 3.13l8.062 13.118h4.676c-1.435-2.194-2.838-4.42-4.24-6.631zm-90.921-25.332a1.243 1.243 0 0 0-.613-1.29v3.371c.194-.726.403-1.436.613-2.081zM1420.916.032h-5.498a8.922 8.922 0 0 0-.66.84 9.425 9.425 0 0 0-1.29 2.403s-2.726 7.439 6.11 10.633c3.45 1.243 6.45.823 10.03.5 1.853-.16 3.224-.258 4.578-.306 2.564 0 5.176 0 7.756.21 10.012.387 17.623 2.936 28.942 15.392l1.241 1.34a74.583 74.583 0 0 1 10.303 12.908h5.805c-6.192-11.892-20.268-23.848-25.911-28.608a26.784 26.784 0 0 0-19.348-5.582l-20.203.726a6.885 6.885 0 0 1-5.208-3.615c-.887-1.92.193-2.92 1.709-5.017.478-.668 1.03-1.28 1.644-1.824zm-17.736 5.583a2.922 2.922 0 0 1 0 3.534 3.062 3.062 0 0 1-3.224.984 6.448 6.448 0 0 1-2.693-1.404 81.664 81.664 0 0 0-8.594-8.697h-4.015a155.872 155.872 0 0 1 14.383 14.231 6.917 6.917 0 0 0 3.224 2.114 4.013 4.013 0 0 0 3.386-1.097c3.225-4.34 2.08-9.326-3.386-15.15l-.129-.098h-4.208a59.683 59.683 0 0 1 5.224 5.583h.032zm74.572-4.276h-.403a11.99 11.99 0 0 0 4.66 1.307c11.98-.758 32.15-1.162 42.083.92a2.871 2.871 0 0 1 2.305 2.468 2.614 2.614 0 0 1-1.74 2.42 6.816 6.816 0 0 1-2.92.485 155.567 155.567 0 0 0-33.859-1.485l-.097.517a2.29 2.29 0 0 0 2.451 1.29 213.67 213.67 0 0 1 36.391 2.647 7.283 7.283 0 0 0 3.676-.259 3.324 3.324 0 0 0 1.839-2.613c-.404-4.84-4.435-7.713-12.254-8.81-1.87 0-4.08-.145-6.45-.194h-19.526c-5.41.05-10.808.487-16.156 1.307zm45.824 14.618c-9.126-2.42-19.816-3.227-33.602-2.742l-.21.548a2.612 2.612 0 0 0 2.258 1.759c2.483.242 5.933.323 9.932.403 7.74.162 15.704.323 18.187 1.92a5.68 5.68 0 0 1 3.225 4.84 3.227 3.227 0 0 1-1.838 2.953c-.81.383-1.7.566-2.596.533l-17.413-.436h-.387l-.113.13a6.756 6.756 0 0 0 4.321 2.968 83.786 83.786 0 0 0 13.06 1.194h1.177a16.967 16.967 0 0 0 6.45-.726 3.92 3.92 0 0 0 1.612-1.613c1.387-4.421-1.08-10.165-4.063-11.73zm1.886 26.672c.434-1.784.378-3.651-.16-5.406a6.16 6.16 0 0 0-6.096-4.324l-12.367-.71-.467.097-.13.355c.29.768.913 1.362 1.694 1.613 3.419.142 6.815.617 10.142 1.42a4.387 4.387 0 0 1 3.063 3.018c.273.86-.04 1.798-.774 2.323a3.03 3.03 0 0 1-2 .387l-6.948.13a.969.969 0 0 0-.146.951c.18.615.59 1.135 1.145 1.452h12.077c.441-.333.777-.787.967-1.306zM1423.48 20.7l.855 1.5c3.224-.951 7.288-1.806 9.335-.241a4.045 4.045 0 0 0 2.628-.468c1.226-.613 1.613-1.34 1.613-1.485l-.5-.177c-3.37-1.468-9.69-.904-13.93.871zm93.324 2.533c.854-.435 1.612-1.274 1.306-1.403-3.37-1.743-21.735-1.614-21.735-1.614.385.508.889.913 1.467 1.178a88.09 88.09 0 0 0 17.946 2.13l1.016-.29zm-80.022 20.524.29.177h2.612a21.13 21.13 0 0 0-3.66-1.468l.758 1.291zM1123.596 5.712l-.468-.468-.483.371a5.586 5.586 0 0 0-1 5.034c7.272 8.874 14.27 21.766 20.477 33.286h6.046c-7.126-14.134-16.236-26.945-24.572-38.223zm54.498 37.61-.452.613h2.097c-.613-.597-1.21-.822-1.645-.613zm-21.735-12.537 2.983 5.212a17.506 17.506 0 0 1 5.676 7.938h4.837a5.923 5.923 0 0 0-.403-.774 46.514 46.514 0 0 0-13.093-12.376zm162.591-5.453-1.015.323a2.647 2.647 0 0 0-.984 1.758 83.292 83.292 0 0 1-3.225 16.522h3.225a92.205 92.205 0 0 0 2.95-16.134c.081-1.404-.273-2.372-.95-2.47zm12.206 9.68h.822c4.982-2.177 8.223-5.26 9.787-9.132a6.458 6.458 0 0 0-.177-5.485c-1-1.614-3.112-2.663-6.45-3.389l-.87-.21a2.788 2.788 0 0 0-2.854 1 1.243 1.243 0 0 0 .258 1.388l4.144 1.485a3.984 3.984 0 0 1 2.144 2.243 7.893 7.893 0 0 1-2.241 5.389c-3.74 3.162-5.353 3.114-5.16 5.502-.096 1.113.355 1.194.597 1.226v-.016zm14.947 1.211c5.191-4.711 6.949-12.376 7.142-20.975l-5.191 1.177c-.242 8.842-2.645 14.99-12.9 21.46l-.918-.581.741.694a75.482 75.482 0 0 1-4.256 2.436 3.535 3.535 0 0 0-1.323 3.501h6.66a36.394 36.394 0 0 0 10.045-7.696v-.016zm-254.883-27.8-.532-.291-.452.21a2.745 2.745 0 0 0 0 2.727 56.815 56.815 0 0 1 8.062 9.148 4.52 4.52 0 0 1 0 5.002 3.095 3.095 0 0 1-2.95 1.404 3.869 3.869 0 0 1-2.226-1.227l-6.659-5.308a1.387 1.387 0 0 0-1.064.694 2.325 2.325 0 0 0 0 2.678l7.949 7.535a5.416 5.416 0 0 0 2.676 1.356 4.157 4.157 0 0 0 2.37-.388 13.935 13.935 0 0 0 5.063-4.84 6.344 6.344 0 0 0-1.467-8.52l-10.77-10.18zm238.436 15.876c-.096.549.387 1.194 1.194 1.694a11.57 11.57 0 0 0 1.612.372c1.725.225 1.967-.323 2.064-.775.274-2.34-.935-2.5-1.42-2.565a8.056 8.056 0 0 0-1.998 0 1.87 1.87 0 0 0-1.452 1.274zM1102.7 34.9a1.612 1.612 0 0 0-1.435.55c-.359.749-.245 1.64.29 2.275a84.082 84.082 0 0 1 5.401 6.211h3.886c-1.988-2.613-4.283-5.42-6.885-8.422a2.676 2.676 0 0 0-1.257-.613zm-7.74 3.228a3.859 3.859 0 0 0 .162 3.388l1.934 2.388h3.999a62.804 62.804 0 0 0-6.095-5.744v-.032zm14.802-23.105c4.047-2.84 5.966-8.988 4.66-11.989-.774-1-1.597-2-2.467-3h-3.225a8.068 8.068 0 0 1 1.773 2.597 5.715 5.715 0 0 1-.741 5.776 3.707 3.707 0 0 1-3.515 1.388 5.303 5.303 0 0 1-2.386-1.049L1092.574.032h-2.58a7.392 7.392 0 0 0 1.42 3.227 73.831 73.831 0 0 0 9.496 8.471l.951.662a14.96 14.96 0 0 0 5.498 3.05 4.173 4.173 0 0 0 2.403-.42zm7.852 1.065-.451.096a3.229 3.229 0 0 0-.516 2.872 246.264 246.264 0 0 1 16.623 24.88h4.58c-5.096-9.551-11.884-18.2-20.042-27.655l-.194-.193zm6.853 27.848h4.192a174.454 174.454 0 0 0-16.285-23.411l-.371.306a2.55 2.55 0 0 0-.822 2.017 279.215 279.215 0 0 0 13.286 21.088zm263.799-20.975 1.016.42c1 .225 2.225 0 2.096-.259-1.306-3.469-15.705-14.989-15.705-14.989a3.504 3.504 0 0 0 .226 1.84 81.457 81.457 0 0 0 12.367 12.94v.048zm18.123-.645-.5.37a5.65 5.65 0 0 0-1.064 5.019c3.95 5.158 7.518 10.6 10.674 16.28h5.708c-4.692-7.551-9.675-14.635-14.35-21.201l-.468-.468zm-5.692 10.762-.435.096a3.229 3.229 0 0 0-.58 2.856c1.886 2.646 3.756 5.276 5.578 7.955h4.225c-2.645-3.518-5.515-7.067-8.578-10.714l-.21-.193zm-41.599 2.936a4.418 4.418 0 0 1-2.709-1.888c-.225-.468-.451-.677-.693-.71-.242-.032-.355 0-1.016.42-2.467 1.484-2.225 2.727-1.741 3.614 2.29 3.082 4.337 4.712 6.24 4.986a5.529 5.529 0 0 0 4.515-2.05 29.504 29.504 0 0 0 4.466-9.454 2.18 2.18 0 0 0 0-1.614 6.046 6.046 0 0 0-1.387-.839l-.258-.129-.677-.516a47.863 47.863 0 0 1-7.336-6.131l-.194.387c-.693 1.516-.677 2.55 0 3.324l3.531 3.759a4.746 4.746 0 0 1 0 5.405 3.03 3.03 0 0 1-2.74 1.388v.048zm87.73-11.665c-.356.37-.356.597-.356.629 0 .032.258.661 1.968 1.371.599.245 1.262.285 1.886.113.468-.193.339-.806.145-1.161-.467-1.033-1.757-1.695-3.644-1v.048zm-74.283 8.922-1 .355-.29 1.178 4.257 5.163.532.194c.65.17 1.338-.08 1.725-.63a1.388 1.388 0 0 0 0-1.613l-5.224-4.647zm80.36-5.357.356.791a4.254 4.254 0 0 0 2.45-.355 2.968 2.968 0 0 0 1.71-2.178 3.744 3.744 0 0 0-1.484-3.227c-5.37-3.985-9.545-3.227-14.157-.952l-.612.306c-.532.468-.58.872-.516.985.064.113.903.71 2.499 0 2.564-1.291 5.611-2.84 10.174.42 1.225.903 1.37 1.71 1.338 2.258-.145.871-.467 1.29-1.757 1.952zm-25.974-2.694 1.612 2.743c8.271-.194 15.205 1.936 20.864 8.067 2.693 4.373 5.32 6.793 7.74 7.164h.548l-.468-1.032c-6.11-11.295-14.157-16.894-24.073-16.765a39.943 39.943 0 0 0-6.288-.177h.065zm-57.643 12.908a1.45 1.45 0 0 0-1.16.63 2.454 2.454 0 0 0-.307 2.774l2.225 2.469h5.434l-6.192-5.873zm14.012-29.51c5.804 5.178 11.802 10.535 12.48 13.407a5.876 5.876 0 0 1-1.29 5.906 3.949 3.949 0 0 1-3.693 1.161 5.416 5.416 0 0 1-2.386-1.274l-13.076-11.763-.29-.258h-.178a6.328 6.328 0 0 0 1.032 5.196 73.715 73.715 0 0 0 9.094 9.584l.919.758a15.768 15.768 0 0 0 5.45 3.582 4.415 4.415 0 0 0 2.515-.177c4.466-2.614 7.014-8.794 5.934-11.989-4.838-7.438-11.835-14.683-21.848-22.589h-2.709c.025.636.264 1.244.677 1.727 1.71 1.662 4.29 3.985 7.304 6.664l.065.064zm-19.687 7.615a6.175 6.175 0 0 1-3.515-2.227c-.22.71-.22 1.47 0 2.178 1.903 4.663 5.466 7.132 8.19 7.487a3.223 3.223 0 0 0 2.935-.758c1-.985 1.226-2.663.694-4.84a26.51 26.51 0 0 1-1.29-10.166 8.707 8.707 0 0 1-3.177 2.307 4.844 4.844 0 0 1 0 3.227 3.79 3.79 0 0 1-3.902 2.727l.065.065zm31.409 21.475a2.599 2.599 0 0 0-.855 2.001c.774 1.42 1.613 2.824 2.37 4.227h3.822a501.785 501.785 0 0 0-4.95-6.534l-.387.306zm-45.469 2.033-.758-.403a1.838 1.838 0 0 0-1.612.694c-.337.338-.45.84-.29 1.29l1.886 2.614h5.111a23.483 23.483 0 0 1-4.337-4.195z"/>
    </g>
</svg>
